<svg width="125" height="125" viewBox="0 0 125 125" fill="none" xmlns="http://www.w3.org/2000/svg">
<g clip-path="url(#clip0)">
<path d="M51.25 81.25H29C18 81.25 9 72.25 9 61C9 49.75 17.5 40.75 29 40.75C31 40.75 33.25 41.25 35.75 41.5L40 42.75L41.25 38.5C45.25 25.5 57.75 17.5 72 17.5C89.25 17.5 102.5 30.75 102.5 48C102.5 50.75 102 53.5 101.25 56.25L99.5 62.5L106.25 61.75C106.75 61.75 107 61.75 107.5 61.75C112.5 61.75 116.5 66 116.5 70.75C116.5 75.5 113 79 108.75 79.75C108.75 79.75 87.25 79.75 86.5 79.75C85.75 73.5 82.5 68 78.25 63.75C72.75 58.25 65.25 55 57.5 55C52 55 46.5 56.5 42.25 59.25L47 66.75C50.5 64.75 54 64 58 64C63.5 64 69 66 72.5 70.25C76.5 74.25 78.75 79.25 78.75 84.75C78.75 90.25 76.75 95.75 72.5 99.25C68.5 103.5 63.5 105.5 58 105.5C54 105.5 50.25 104.25 47 102L42.25 109.5C47 112.25 52.5 114.25 57.5 114.25C65.25 114.25 72.75 111.5 78.25 105.75C83 101 85.75 94.75 86.5 88.25C87.75 88.25 109.25 88.25 109.25 88.25H109.75C118.75 87.5 125.5 79.75 125.5 70.25C125.5 62.75 118.5 55.75 110.25 54.25C110.75 52.75 110.75 52 110.75 49.5C110.75 27.5 95.25 10 70.5 10C54.75 10 40.75 19 35 33.5C33 33.5 31.5 32.75 29.25 32.75C13 32.5 0 45 0 61C0 76.75 13 89.25 28.5 89.25H53L51.25 81.25Z" fill="#59B4D9"/>
<path d="M57.0003 98.5005C64.7323 98.5005 71.0003 92.2325 71.0003 84.5005C71.0003 76.7685 64.7323 70.5005 57.0003 70.5005C49.2683 70.5005 43.0003 76.7685 43.0003 84.5005C43.0003 92.2325 49.2683 98.5005 57.0003 98.5005Z" fill="#68217A"/>
</g>
<defs>
<clipPath id="clip0">
<rect width="125" height="125" fill="white"/>
</clipPath>
</defs>
</svg>
