<svg width="125" height="125" viewBox="0 0 125 125" fill="none" xmlns="http://www.w3.org/2000/svg">
<g clip-path="url(#clip0)">
<path d="M100.482 112.098C89.6066 120.449 76.2774 124.976 62.5648 124.975C43.7648 124.975 25.1748 116.535 12.8898 100.467C-8.10021 73.0625 -2.92021 33.87 24.5348 12.87C35.8573 4.1575 49.2148 0 62.4473 0C81.2473 0 99.8423 8.44 112.122 24.5225C133.117 51.92 127.885 91.12 100.482 112.098Z" fill="#59B4D9"/>
<path d="M88.9999 73.4453C91.1693 76.275 94.3727 78.1284 97.9071 78.599C101.441 79.0696 105.018 78.1188 107.852 75.9553C108.16 75.7203 108.397 75.4353 108.677 75.1828C114.7 79.4253 118.882 82.2253 121.24 83.8303C121.937 82.0228 122.42 80.2878 122.915 78.4753C119.282 75.7534 115.706 72.9561 112.19 70.0853C113.787 65.8853 113.282 60.9853 110.365 57.1578C108.385 54.5772 105.534 52.8049 102.343 52.1715C99.1526 51.538 95.8406 52.0868 93.0249 53.7153C85.9492 47.3646 79.0361 40.835 72.2924 34.1328C95.2049 21.8103 111.482 23.6153 111.482 23.6153C108.765 20.1503 105.72 17.1153 102.467 14.3728C92.8049 12.8803 77.7949 13.0478 60.6449 22.1703L60.6399 22.1628H60.6374C54.6523 15.8884 48.8312 9.45953 43.1799 2.88281C40.3376 3.79124 37.5694 4.91707 34.8999 6.25031C39.2724 13.4053 45.1549 20.6228 51.7849 27.6628L51.8274 27.7053C45.5564 32.1298 39.7411 37.1671 34.4674 42.7428C33.7424 43.5153 33.0449 44.2928 32.3624 45.0703C28.9327 44.3444 25.3686 44.5886 22.0699 45.7753C16.4099 33.5628 16.8649 23.7528 17.7599 18.6953C15.3024 21.2703 13.0074 23.9778 11.0299 26.8628C9.55239 32.9003 9.13239 41.6078 13.4924 52.1003C10.9801 55.3847 9.61777 59.4043 9.61551 63.5395C9.61325 67.6746 10.9712 71.6956 13.4799 74.9828C13.9199 75.5553 14.3899 76.0878 14.8774 76.5953C12.8058 83.7277 11.5807 91.0791 11.2274 98.4978C11.8199 99.3028 11.8199 99.9528 12.4074 100.738C15.4049 104.583 19.1699 107.823 22.8074 110.758C22.3574 103.883 22.8424 93.7428 27.0924 82.3278C30.0661 82.5547 33.051 82.0696 35.7999 80.9128C37.3999 82.3203 39.0749 83.7428 40.8624 85.1903C46.5147 89.68 52.6183 93.5701 59.0749 96.7978C58.7383 99.9302 59.6032 103.074 61.4949 105.593C63.5123 108.203 66.4798 109.909 69.7502 110.339C73.0206 110.769 76.3285 109.889 78.9524 107.89C80.0399 107.04 80.9763 106.012 81.7224 104.85C91.4449 107.015 99.9399 107.398 106.237 107.398C107.202 107.398 111.68 101.308 114.245 97.5328C110.41 98.3353 99.0374 99.8978 83.4949 95.4328C83.1225 93.6369 82.3557 91.9461 81.2499 90.4828C77.3024 85.3078 70.0849 84.1878 64.7049 87.6503C58.7592 84.4042 53.1064 80.6485 47.8099 76.4253C46.6598 75.5152 45.5271 74.5834 44.4124 73.6303C46.1848 70.8288 47.1909 67.6112 47.3305 64.299C47.47 60.9868 46.7379 57.696 45.2074 54.7553C45.9224 54.0403 46.6249 53.3228 47.3849 52.6128C53.1624 47.2153 58.5974 42.8953 63.6824 39.4278C63.4774 39.2378 63.2924 39.0378 63.0924 38.8453C63.2949 39.0328 63.4849 39.2253 63.6899 39.4128L63.6849 39.4153C71.4874 46.6303 79.7599 53.4678 87.5949 59.5778C85.5224 63.9728 85.8474 69.3253 88.9999 73.4453Z" fill="white"/>
</g>
<defs>
<clipPath id="clip0">
<rect width="125" height="125" fill="white"/>
</clipPath>
</defs>
</svg>
