<svg width="125" height="125" viewBox="0 0 125 125" fill="none" xmlns="http://www.w3.org/2000/svg">
<g clip-path="url(#clip0)">
<path d="M62.5 125C59.5 125 56.5 123.75 54.25 121.5L3.5 70.75C1.25 68.5 0 65.5 0 62.5C0 59.5 1.25 56.5 3.5 54.25L54.25 3.5C56.5 1.25 59.5 0 62.5 0C65.5 0 68.5 1.25 70.75 3.5L121.75 54.5C124 56.75 125.25 59.5 125.25 62.75C125.25 65.75 124 68.75 121.75 71L70.75 121.5C68.5 123.75 65.5 125 62.5 125Z" fill="#7FBA00"/>
<path d="M74.3449 46.4596C70.8499 49.1321 66.7349 50.4321 62.6449 50.4321C56.8449 50.4321 51.1099 47.8271 47.3174 42.8696C40.8424 34.4146 42.4399 22.3221 50.9099 15.8421C54.4024 13.1546 58.5249 11.8721 62.6074 11.8721C68.4074 11.8721 74.1449 14.4771 77.9349 19.4371C84.4124 27.8946 82.7974 39.9896 74.3449 46.4596Z" fill="white"/>
<path opacity="0.15" d="M70.75 3.5C68.5 1.25 65.5 0 62.5 0C59.5 0 56.5 1.25 54.25 3.5L3.5 54.25C1.25 56.5 0 59.5 0 62.5C0 65.5 1.25 68.5 3.5 70.75L32.25 99.5L86.5 19.25L70.75 3.5Z" fill="white"/>
<path d="M62.4999 114.001L78.9999 97.5005H67.2499V47.873H57.4999V97.5005H45.9999L62.4999 114.001Z" fill="white"/>
<path d="M98.3249 83.7002V60.3652L90.1924 68.4977L69.0824 47.3877L62.0124 54.4577L83.1224 75.5677L74.9899 83.7002H98.3249Z" fill="white"/>
<path d="M26.7126 83.7878H50.0451L41.9151 75.6578L63.6176 53.9553L56.5451 46.8828L34.8426 68.5853L26.7126 60.4553V83.7878Z" fill="white"/>
<path d="M72.7874 44.428C69.7574 46.7455 66.1874 47.873 62.6424 47.873C57.6124 47.873 52.6374 45.6155 49.3524 41.3155C43.7374 33.983 45.1224 23.498 52.4674 17.878C55.4974 15.548 59.0699 14.4355 62.6099 14.4355C67.6399 14.4355 72.6149 16.693 75.8999 20.9955C81.5199 28.328 80.1199 38.8155 72.7874 44.428Z" fill="#59B4D9"/>
<path d="M69.7151 34.0876C70.9301 35.6726 73.1851 35.9576 74.7601 34.7601C74.8426 34.6976 74.9051 34.6201 74.9801 34.5526C76.5926 35.6876 77.7101 36.4376 78.3401 36.8651C78.5276 36.3826 78.6551 35.9176 78.7876 35.4326C78.1226 34.9376 77.2201 34.2426 75.9176 33.1876C76.3451 32.0651 76.2101 30.7526 75.4301 29.7276C74.3126 28.2826 72.3351 27.9151 70.7901 28.8076C69.0876 27.2801 67.2151 25.5276 65.2426 23.5676C71.3726 20.2701 75.7276 20.7526 75.7276 20.7526C75.0001 19.8251 74.1851 19.0126 73.3151 18.2801C70.7301 17.8801 66.7151 17.9251 62.1251 20.3651L62.1226 20.3626C60.5926 18.7626 59.0376 17.0451 57.4526 15.2051C56.6951 15.4476 55.9526 15.7476 55.2376 16.1051C56.4076 18.0201 57.9826 19.9501 59.7551 21.8351C59.7576 21.8401 59.7626 21.8426 59.7676 21.8476C58.2876 22.8826 56.6426 24.2651 55.1226 25.8701C54.9276 26.0776 54.7426 26.2851 54.5601 26.4926C53.6526 26.3026 52.6976 26.3576 51.8051 26.6801C50.2901 23.4126 50.4126 20.7876 50.6526 19.4351C49.9951 20.1251 49.3801 20.8476 48.8526 21.6201C48.4576 23.2351 48.3451 25.5651 49.5126 28.3726C48.1626 30.1401 48.0976 32.6451 49.5101 34.4951C49.6276 34.6476 49.7526 34.7901 49.8851 34.9276C49.2701 37.0251 48.9926 39.0501 48.9076 40.7876C49.0651 41.0026 49.0651 41.1776 49.2226 41.3876C50.0251 42.4151 51.0326 43.2826 52.0051 44.0676C51.8851 42.2276 52.0151 39.5151 53.1526 36.4601C53.9376 36.5201 54.7351 36.3951 55.4826 36.0826C55.9101 36.4601 56.3576 36.8401 56.8376 37.2276C58.4776 38.5276 60.1151 39.5376 61.7101 40.3326C61.6276 41.1451 61.8301 41.9876 62.3576 42.6851C63.4851 44.1401 65.5726 44.4126 67.0276 43.3001C67.3301 43.0676 67.5701 42.7876 67.7676 42.4876C70.3701 43.0676 72.6426 43.1701 74.3276 43.1701C74.5851 43.1701 75.7826 41.5401 76.4701 40.5301C75.4451 40.7451 72.4001 41.1626 68.2426 39.9676C68.1426 39.5001 67.9501 39.0476 67.6426 38.6426C66.5876 37.2576 64.6551 36.9576 63.2151 37.8851C61.7701 37.1001 60.2551 36.1176 58.6951 34.8826C58.3801 34.6326 58.0776 34.3851 57.7851 34.1351C58.7401 32.6326 58.8401 30.7051 57.9976 29.0851C58.1901 28.8926 58.3776 28.7026 58.5801 28.5126C60.1251 27.0676 61.5801 25.9126 62.9401 24.9851C62.8851 24.9351 62.8351 24.8801 62.7826 24.8301C62.8376 24.8801 62.8876 24.9326 62.9426 24.9826C62.9426 24.9826 62.9426 24.9826 62.9401 24.9826C65.0276 26.9126 67.2401 28.7426 69.3376 30.3776C68.7851 31.5526 68.8726 32.9851 69.7151 34.0876Z" fill="white"/>
</g>
<defs>
<clipPath id="clip0">
<rect width="125" height="125" fill="white"/>
</clipPath>
</defs>
</svg>
