<svg width="125" height="125" viewBox="0 0 125 125" fill="none" xmlns="http://www.w3.org/2000/svg">
<g clip-path="url(#clip0)">
<path d="M0.0250799 89.075C-0.18742 90.405 0.94758 91.765 3.43008 92.7825L54.2201 113.592C58.7926 115.467 66.2076 115.467 70.7826 113.592L121.573 92.7825C124.055 91.765 125.19 90.405 124.978 89.075L124.99 77.155C125.145 78.46 124.005 79.785 121.573 80.7825L70.7826 101.592C66.2101 103.467 58.7951 103.467 54.2201 101.592L3.43008 80.7825C0.76008 79.6875 -0.35242 78.1975 0.0975799 76.7725L0.0250799 89.075Z" fill="#BA141A"/>
<path d="M121.57 73.9973C126.142 75.8723 126.142 78.9098 121.57 80.7823L70.7796 101.592C66.2071 103.467 58.7921 103.467 54.2171 101.592L3.42963 80.7823C-1.14287 78.9073 -1.14287 75.8698 3.42963 73.9973L54.2196 53.1873C58.7921 51.3123 66.2071 51.3123 70.7821 53.1873L121.57 73.9973Z" fill="#BA141A"/>
<path d="M0.0250799 68.0103C-0.18742 69.3403 0.94758 70.7003 3.43008 71.7178L54.2201 92.5278C58.7926 94.4028 66.2076 94.4028 70.7826 92.5278L121.573 71.7178C124.055 70.7003 125.19 69.3403 124.978 68.0103L124.99 56.0903C125.145 57.3953 124.005 58.7203 121.573 59.7178L70.7826 80.5278C66.2101 82.4028 58.7951 82.4028 54.2201 80.5278L3.43008 59.7178C0.76008 58.6228 -0.35242 57.1328 0.0975799 55.7078L0.0250799 68.0103Z" fill="#BA141A"/>
<path d="M121.57 52.9326C126.142 54.8076 126.142 57.8451 121.57 59.7176L70.7796 80.5276C66.2071 82.4026 58.7921 82.4026 54.2171 80.5276L3.42963 59.7176C-1.14287 57.8426 -1.14287 54.8051 3.42963 52.9326L54.2196 32.1226C58.7921 30.2476 66.2071 30.2476 70.7821 32.1226L121.57 52.9326Z" fill="#BA141A"/>
<path d="M0.0250799 46.9451C-0.18742 48.2751 0.94758 49.6351 3.43008 50.6526L54.2201 71.4626C58.7926 73.3376 66.2076 73.3376 70.7826 71.4626L121.573 50.6526C124.055 49.6351 125.19 48.2751 124.978 46.9451L124.99 35.0251C125.145 36.3301 124.005 37.6551 121.573 38.6526L70.7826 59.4626C66.2101 61.3376 58.7951 61.3376 54.2201 59.4626L3.43008 38.6526C0.76008 37.5576 -0.35242 36.0676 0.0975799 34.6426L0.0250799 46.9451Z" fill="#BA141A"/>
<path opacity="0.25" d="M0.0250799 89.075C-0.18742 90.405 0.94758 91.765 3.43008 92.7825L54.2201 113.592C58.7926 115.467 66.2076 115.467 70.7826 113.592L121.573 92.7825C124.055 91.765 125.19 90.405 124.978 89.075L124.99 77.155C125.145 78.46 124.005 79.785 121.573 80.7825L70.7826 101.592C66.2101 103.467 58.7951 103.467 54.2201 101.592L3.43008 80.7825C0.76008 79.6875 -0.35242 78.1975 0.0975799 76.7725L0.0250799 89.075Z" fill="#1E1E1E"/>
<path opacity="0.25" d="M0.0250799 68.0098C-0.18742 69.3398 0.94758 70.6998 3.43008 71.7173L54.2201 92.5273C58.7926 94.4023 66.2076 94.4023 70.7826 92.5273L121.573 71.7173C124.055 70.6998 125.19 69.3398 124.978 68.0098L124.99 56.0898C125.145 57.3948 124.005 58.7198 121.573 59.7173L70.7826 80.5273C66.2101 82.4023 58.7951 82.4023 54.2201 80.5273L3.43008 59.7173C0.76008 58.6223 -0.35242 57.1323 0.0975799 55.7073L0.0250799 68.0098Z" fill="#1E1E1E"/>
<path opacity="0.25" d="M0.0250799 46.9451C-0.18742 48.2751 0.94758 49.6351 3.43008 50.6526L54.2201 71.4626C58.7926 73.3376 66.2076 73.3376 70.7826 71.4626L121.573 50.6526C124.055 49.6351 125.19 48.2751 124.978 46.9451L124.99 35.0251C125.145 36.3301 124.005 37.6551 121.573 38.6526L70.7826 59.4626C66.2101 61.3376 58.7951 61.3376 54.2201 59.4626L3.43008 38.6526C0.76008 37.5576 -0.35242 36.0676 0.0975799 34.6426L0.0250799 46.9451Z" fill="#1E1E1E"/>
<path d="M121.57 31.8674C126.142 33.7424 126.142 36.7799 121.57 38.6524L70.7796 59.4624C66.2071 61.3374 58.7921 61.3374 54.2171 59.4624L3.42963 38.6524C-1.14287 36.7774 -1.14287 33.7399 3.42963 31.8674L54.2196 11.0574C58.7921 9.18237 66.2071 9.18237 70.7821 11.0574L121.57 31.8674Z" fill="#BA141A"/>
<path d="M46.8502 39.1827C41.0527 41.7602 31.6552 41.7602 25.8602 39.1827C20.0651 36.6052 20.0626 32.4252 25.8602 29.8452C31.6577 27.2652 41.0552 27.2677 46.8502 29.8452C52.6452 32.4227 52.6477 36.6052 46.8502 39.1827Z" fill="white"/>
<path d="M42.9175 45.8226L72.6625 42.2776L64.6925 55.5076L42.9175 45.8226Z" fill="white"/>
<path opacity="0.25" d="M89.5251 42.4974L71.7376 34.5849L89.5251 26.6724L107.315 34.5849L89.5251 42.4974Z" fill="#1E1E1E"/>
<path opacity="0.25" d="M89.5251 42.4974L71.7376 34.5849L89.5251 26.6724V42.4974Z" fill="#1E1E1E"/>
<path d="M56.7925 24.9153L45.18 23.8653L55.495 21.2703L54.1525 16.0303L62.89 19.5928L73.675 17.4078L68.76 22.2028L76.7675 26.0903L64.9925 25.4928L59.155 30.0828L56.7925 24.9153Z" fill="white"/>
</g>
<defs>
<clipPath id="clip0">
<rect width="125" height="125" fill="white"/>
</clipPath>
</defs>
</svg>
