<svg width="125" height="125" viewBox="0 0 125 125" fill="none" xmlns="http://www.w3.org/2000/svg">
<path d="M49.367 20.3262L76.9988 59.6333L82.1118 56.039L54.4801 16.7319L49.367 20.3262Z" fill="#B8D432"/>
<path d="M76.9902 59.1775L101.442 101.895L106.866 98.7896L82.4145 56.0725L76.9902 59.1775Z" fill="#B8D432"/>
<path d="M19.6552 59.9256L20.1723 66.1543L79.7347 61.209L79.2175 54.9803L19.6552 59.9256Z" fill="#B8D432"/>
<path d="M55.9386 91.293L61.2916 94.5186L82.2583 59.7232L76.9052 56.4976L55.9386 91.293Z" fill="#B8D432"/>
<path d="M123.047 0H91.406C90.2341 0 89.4529 0.781155 89.4529 2.34365V13.6719C89.4529 14.8438 90.2341 15.625 91.406 15.625H109.375V33.2031C109.375 34.375 110.156 35.1562 111.718 35.1562H123.047C124.218 35.1562 125 34.375 125 33.2031V1.95312C125 0.78125 124.218 0 123.047 0Z" fill="#0072C6"/>
<path d="M1.95312 124.609H33.5937C34.7655 124.609 35.5468 123.827 35.5468 122.265V110.937C35.5468 109.765 34.7655 108.984 33.5937 108.984H15.625V91.4058C15.625 90.2339 14.8438 89.4526 13.2813 89.4526H1.95312C0.78125 89.4526 0 90.2339 0 91.4058V122.656C0 123.828 0.78125 124.609 1.95312 124.609Z" fill="#0072C6"/>
<path d="M52.344 31.2496C59.0318 31.2496 64.4533 25.8281 64.4533 19.1403C64.4533 12.4525 59.0318 7.03076 52.344 7.03076C45.6562 7.03076 40.2345 12.4525 40.2345 19.1403C40.2345 25.8281 45.6562 31.2496 52.344 31.2496Z" fill="#006DD6"/>
<path d="M80.0783 72.6566C88.0605 72.6566 94.5315 66.1859 94.5315 58.2037C94.5315 50.2214 88.0605 43.7505 80.0783 43.7505C72.0961 43.7505 65.6251 50.2214 65.6251 58.2037C65.6251 66.1859 72.0961 72.6566 80.0783 72.6566Z" fill="#006DD6"/>
<path d="M104.297 112.5C110.553 112.5 115.625 107.428 115.625 101.172C115.625 94.9156 110.553 89.8438 104.297 89.8438C98.0407 89.8438 92.9689 94.9156 92.9689 101.172C92.9689 107.428 98.0407 112.5 104.297 112.5Z" fill="#006DD6"/>
<path d="M59.3749 103.125C64.7683 103.125 69.1405 98.7523 69.1405 93.3589C69.1405 87.9655 64.7683 83.5933 59.3749 83.5933C53.9815 83.5933 49.6092 87.9655 49.6092 93.3589C49.6092 98.7523 53.9815 103.125 59.3749 103.125Z" fill="#006DD6"/>
<path d="M19.9221 73.437C25.3155 73.437 29.6878 69.0648 29.6878 63.6714C29.6878 58.278 25.3155 53.9058 19.9221 53.9058C14.5287 53.9058 10.1565 58.278 10.1565 63.6714C10.1565 69.0648 14.5287 73.437 19.9221 73.437Z" fill="#006DD6"/>
</svg>
