<svg width="126" height="115" viewBox="0 0 126 115" fill="none" xmlns="http://www.w3.org/2000/svg">
<g clip-path="url(#clip0)">
<path d="M103.574 51.0822C105.628 59.0982 105.245 67.5448 102.473 75.3419C99.7017 83.1389 94.6673 89.9321 88.014 94.8526C81.3608 99.7731 73.3911 102.597 65.1241 102.964C56.8572 103.331 48.6687 101.223 41.6059 96.9113C34.5431 92.5993 28.927 86.2786 25.4757 78.7576C22.0244 71.2366 20.8949 62.857 22.2315 54.6906C23.5682 46.5242 27.3103 38.9421 32.9792 32.9138C38.6482 26.8856 45.9864 22.6853 54.0554 20.8499C64.6239 18.4052 75.7296 20.202 84.988 25.8545C94.2464 31.507 100.919 40.5645 103.574 51.0822Z" fill="#59B4D9"/>
<path opacity="0.5" d="M57.704 77.6658C57.6876 74.7677 56.5291 71.9931 54.4798 69.9438C52.4306 67.8946 49.6559 66.736 46.7579 66.7196H44.6729C45.0495 65.3499 45.1444 63.9179 44.9518 62.5104C44.7591 61.1029 44.2829 59.7491 43.552 58.5309C42.8211 57.3128 41.8507 56.2555 40.6995 55.4232C39.5482 54.5909 38.2401 54.0007 36.8542 53.6885H23.3018C22.0489 59.9591 22.2927 66.4369 24.0136 72.5956C25.7344 78.7543 28.8836 84.4202 33.2055 89.1332H46.7579C49.708 88.999 52.4926 87.7318 54.5316 85.5956C56.5707 83.4594 57.7071 80.6189 57.704 77.6658ZM71.2564 32.3174V34.4024H66.5652C63.5239 34.4024 60.6071 35.6105 58.4565 37.7611C56.306 39.9117 55.0978 42.8284 55.0978 45.8698C55.0978 48.9111 56.306 51.8279 58.4565 53.9785C60.6071 56.129 63.5239 57.3372 66.5652 57.3372H104.616C104.108 50.5745 101.877 44.0545 98.1358 38.3977C94.3951 32.7409 89.2688 28.1356 83.2451 25.02H78.5539C77.5891 24.9964 76.6296 25.169 75.7336 25.5274C74.8376 25.8858 74.0237 26.4224 73.3413 27.1048C72.6589 27.7872 72.1222 28.6011 71.7639 29.4971C71.4055 30.3932 71.2328 31.3526 71.2564 32.3174ZM104.616 65.1559H82.2026C80.9691 65.1511 79.7469 65.3905 78.6064 65.8603C77.4659 66.3301 76.4297 67.021 75.5575 67.8932C74.6853 68.7654 73.9943 69.8016 73.5245 70.9421C73.0547 72.0826 72.8153 73.3048 72.8202 74.5383C72.917 76.1474 73.2689 77.7309 73.8627 79.2295C71.5435 79.967 69.5985 81.5712 68.4332 83.7076C67.2679 85.844 66.9722 88.3478 67.6077 90.6969C68.1251 92.6083 69.2935 94.2792 70.9112 95.4211C72.529 96.563 74.4946 97.1045 76.4689 96.9519H82.7238C88.6801 93.8276 93.786 89.2999 97.6004 83.76C101.415 78.2202 103.823 71.8349 104.616 65.1559Z" fill="white"/>
<path d="M17.047 33.3597C16.7765 33.3414 16.5219 33.2257 16.3302 33.0341C16.1385 32.8424 16.0228 32.5877 16.0045 32.3172C16.0045 28.4464 14.4668 24.7342 11.7298 21.9971C8.99269 19.26 5.28042 17.7224 1.40962 17.7224C0.888372 18.2436 0.367126 17.2011 0.367126 16.6799C0.385421 16.4094 0.501128 16.1547 0.692811 15.9631C0.884493 15.7714 1.13916 15.6557 1.40962 15.6374C5.28042 15.6374 8.99269 14.0997 11.7298 11.3626C14.4668 8.62556 16.0045 4.9133 16.0045 1.04249C16.0045 0 16.5257 0 17.047 0C17.5682 0 18.6107 0 18.6107 1.04249C18.6107 4.9133 20.1484 8.62556 22.8855 11.3626C25.6225 14.0997 29.3348 15.6374 33.2056 15.6374C33.4821 15.6374 33.7473 15.7472 33.9428 15.9427C34.1383 16.1382 34.2481 16.4034 34.2481 16.6799C34.2481 16.9564 34.1383 17.2215 33.9428 17.417C33.7473 17.6125 33.4821 17.7224 33.2056 17.7224C29.3348 17.7224 25.6225 19.26 22.8855 21.9971C20.1484 24.7342 18.6107 28.4464 18.6107 32.3172C18.6107 32.8385 18.0895 33.3597 17.047 33.3597Z" fill="#B8D432"/>
<path d="M106.18 114.674C105.658 114.674 105.658 114.674 105.658 114.153C105.569 111.879 104.59 109.731 102.933 108.171C101.276 106.612 99.0724 105.765 96.7972 105.813C96.276 105.813 96.276 105.813 96.276 105.292C96.276 104.771 96.276 104.771 96.7972 104.771C99.0471 104.732 101.202 103.856 102.84 102.314C104.479 100.772 105.484 98.674 105.658 96.4307C105.658 95.9094 105.658 95.9094 106.18 95.9094C106.701 95.9094 106.701 95.9094 106.701 96.4307C106.791 98.7046 107.769 100.853 109.426 102.412C111.084 103.972 113.287 104.819 115.562 104.771C116.083 104.771 116.083 104.771 116.083 105.292C116.083 105.813 116.083 105.813 115.562 105.813C113.312 105.852 111.158 106.728 109.519 108.27C107.88 109.812 106.876 111.91 106.701 114.153C107.222 114.674 106.701 114.674 106.18 114.674Z" fill="#59B4D9"/>
<path d="M123.902 23.9773C119.732 17.7223 110.35 16.1586 95.2335 19.8073C90.6255 20.8842 86.0973 22.2775 81.6811 23.9773C84.4791 25.4082 87.1027 27.1573 89.4997 29.1897C92.106 28.6685 94.7122 27.626 96.7972 27.1048C100.71 26.0731 104.739 25.5475 108.786 25.541C113.477 25.541 116.083 26.5835 117.126 28.1472C118.69 30.7535 117.126 37.0084 108.786 46.9121C107.181 48.7776 105.439 50.52 103.573 52.1246C94.0701 61.2523 83.5806 69.2942 72.2986 76.1019C61.2618 83.0532 49.34 88.4882 36.8539 92.2605C21.7378 96.9517 11.3129 96.9517 9.22787 93.303C7.14289 89.6543 11.3129 80.2718 22.7803 69.3257C22.1759 66.2321 21.8272 63.094 21.7378 59.9432C4.01541 76.1019 -1.71829 90.1755 2.45168 97.473C4.36658 99.6919 6.78654 101.418 9.50784 102.507C12.2291 103.595 15.1721 104.014 18.0891 103.728C27.2165 103.379 36.2129 101.439 44.6726 97.9942C55.5927 93.8372 66.0697 88.5987 75.9473 82.3568C85.8733 76.1723 95.286 69.1999 104.095 61.507C107.651 58.4715 110.963 55.16 113.998 51.6033C124.423 39.6147 127.551 30.2322 123.902 23.9773Z" fill="black"/>
</g>
<defs>
<clipPath id="clip0">
<rect width="125" height="114.674" fill="white" transform="translate(0.367126)"/>
</clipPath>
</defs>
</svg>
