<svg width="125" height="125" viewBox="0 0 125 125" fill="none" xmlns="http://www.w3.org/2000/svg">
<path d="M2.0825 0C0.8325 0 0 0.8325 0 2.0825V27.0825C0 28.3325 0.8325 29.165 2.0825 29.165H14.5825C15.8325 29.165 16.665 28.3325 16.665 27.0825V16.6675H108.333V27.085C108.333 28.335 109.165 29.1675 110.833 29.1675H122.915C124.165 29.1675 124.997 28.335 124.997 27.085V14.585V2.085C125 0.8325 124.167 0 122.917 0H2.0825Z" fill="#0072C6"/>
<path d="M122.917 125C124.167 125 125 124.167 125 122.917V98.335C125 97.085 124.167 96.2525 122.917 96.2525H110.835C109.585 96.2525 108.753 97.085 108.753 98.335V108.335H16.6675V97.9175C16.6675 96.6675 15.835 95.835 14.1675 95.835H2.0825C0.8325 95.835 0 96.6675 0 98.335V122.917C0 124.167 0.8325 125 2.0825 125H122.917Z" fill="#0072C6"/>
<path d="M74.6425 65.2452C71.4 68.4877 67.0875 70.2752 62.5 70.2752C57.9125 70.2752 53.6 68.4902 50.355 65.2452L27.0825 41.9727V89.2802H97.915V41.9702L74.6425 65.2452Z" fill="#59B4D9"/>
<path d="M62.5 66.8201C66.165 66.8201 69.61 65.3926 72.2 62.8026L97.915 37.0876V35.7251H27.0825V37.0901L52.7975 62.8001C55.39 65.3926 58.835 66.8201 62.5 66.8201Z" fill="#59B4D9"/>
</svg>
