<svg width="125" height="118" viewBox="0 0 125 118" fill="none" xmlns="http://www.w3.org/2000/svg">
<g clip-path="url(#clip0)">
<path d="M59.5114 16.3722H2.06586V62.7198C2.06586 63.445 2.35155 64.1702 2.857 64.7196L2.83502 64.7416C2.90095 64.8075 2.98885 64.8954 3.07676 64.9393C3.60418 65.4228 4.28544 65.7305 5.09856 65.7305H64.8076C66.3239 65.7305 67.8403 64.4778 67.8403 62.6978V16.3722H59.5114Z" fill="#59B4D9"/>
<path d="M14.6801 26.7009H55.7315V30.4808H14.6801V26.7009ZM14.6801 39.0295H55.7315V42.8094H14.6801V39.0295ZM14.6801 51.3801H55.7315V55.16H14.6801V51.3801Z" fill="white"/>
<path d="M97.7937 49.1166C97.7937 49.1166 100.826 26.7009 80.1689 22.4156C80.1689 22.4156 78.4108 22.1739 76.1473 22.1739C73.62 22.1739 72.6311 22.9211 72.6311 22.9211V31.9972C72.6311 31.9972 73.3783 31.25 76.6527 31.25C78.6745 31.25 80.1689 31.4917 80.9381 31.4917C85.7289 33.0081 90.2559 36.5243 89.245 48.8748H80.4326L94.2776 65.9942L107.881 48.8748H97.7937V49.1166Z" fill="#7FBA00"/>
<path d="M115.441 77.8393H113.682V106.54H84.9597V108.826C84.9597 109.837 85.2015 110.584 86.2124 110.584H115.946C116.957 110.584 117.704 109.837 117.704 108.826V79.5974C117.704 78.5865 116.451 77.8393 115.441 77.8393Z" fill="#59B4D9"/>
<path d="M122.737 85.1354H120.978V113.594C120.978 113.836 120.737 113.836 120.737 113.836H92.2557V116.1C92.2557 117.111 92.4975 117.858 93.5084 117.858H122.737C123.989 117.858 125 116.847 125 115.594V86.8935C125 85.9045 123.747 85.1354 122.737 85.1354Z" fill="#59B4D9"/>
<path d="M10.3948 16.3722H67.8183V3.01073C67.8183 1.49438 66.5657 -0.0219727 64.7856 -0.0219727H5.09856C3.58221 -0.0219727 2.06586 1.23067 2.06586 3.01073V16.3722H10.3948ZM107.617 69.7741H78.3888C77.3779 69.7741 76.6307 70.5213 76.6307 71.5322V78.081H109.353V71.5322C109.397 70.5213 108.628 69.7741 107.617 69.7741Z" fill="#3999C6"/>
<path d="M105.353 77.8393H76.6527V100.76C76.6527 101.771 77.3999 102.518 78.4108 102.518H107.639C108.65 102.518 109.397 101.771 109.397 100.76V77.8393H105.353Z" fill="#59B4D9"/>
<path d="M84.1906 81.8609H100.563V85.8825H84.1906V81.8609Z" fill="white"/>
<path opacity="0.2" d="M59.5554 16.3722H2.10986V62.7198C2.10986 63.4669 2.41753 64.2361 2.96693 64.8075C3.49436 65.3789 67.8623 16.3722 67.8623 16.3722H59.5554ZM109.397 77.8393H76.6528V100.629C76.6528 100.629 76.5649 101.42 77.0703 101.925L109.397 77.8393Z" fill="white"/>
</g>
<defs>
<clipPath id="clip0">
<rect width="125" height="117.902" fill="white"/>
</clipPath>
</defs>
</svg>
