<svg width="125" height="125" viewBox="0 0 125 125" fill="none" xmlns="http://www.w3.org/2000/svg">
<path d="M0 112C0 114.5 2 116.75 4.5 116.75H120.25C122.75 116.75 125 114.75 125 112V29.25H0V112Z" fill="#A0A1A2"/>
<path d="M120.25 10H4.5C2 10 0 12.25 0 14.75V29H125V14.75C125 12.25 123 10 120.25 10Z" fill="#7A7A7A"/>
<path d="M60.2499 37.75H9.24994V70.25H60.2499V37.75Z" fill="#0072C6"/>
<path d="M60.2499 74.75H9.24994V107.25H60.2499V74.75Z" fill="#0072C6"/>
<path d="M115.5 37.75H64.75V70.25H115.5V37.75Z" fill="white"/>
<path d="M115.5 74.75H64.75V107.25H115.5V74.75Z" fill="#0072C6"/>
<path opacity="0.2" d="M5 10C2.25 10 0 12.25 0 15V33.25V41.5V111.5C0 114.25 2.25 116.5 5 116.5H10.5L109 10H5Z" fill="white"/>
</svg>
