<svg width="126" height="125" viewBox="0 0 126 125" fill="none" xmlns="http://www.w3.org/2000/svg">
<g clip-path="url(#clip0)">
<path d="M51.4392 68.1819C54.5772 68.1819 57.121 65.638 57.121 62.5001C57.121 59.3621 54.5772 56.8182 51.4392 56.8182C48.3012 56.8182 45.7574 59.3621 45.7574 62.5001C45.7574 65.638 48.3012 68.1819 51.4392 68.1819Z" fill="#59B4D9"/>
<path d="M74.1665 68.1819C77.3045 68.1819 79.8483 65.638 79.8483 62.5001C79.8483 59.3621 77.3045 56.8182 74.1665 56.8182C71.0285 56.8182 68.4847 59.3621 68.4847 62.5001C68.4847 65.638 71.0285 68.1819 74.1665 68.1819Z" fill="#59B4D9"/>
<path d="M28.7119 46.875H35.8142V96.5909H28.7119V46.875Z" fill="#59B4D9"/>
<path d="M28.7119 89.4886H78.4278V96.5909H28.7119V89.4886ZM89.7915 28.4091H96.8938V78.125H89.7915V28.4091Z" fill="#59B4D9"/>
<path d="M47.1779 28.4091H96.8938V35.5113H47.1779V28.4091Z" fill="#59B4D9"/>
<path d="M62.8029 0C50.4415 0 38.3578 3.66556 28.0797 10.5331C17.8016 17.4007 9.79087 27.1619 5.06039 38.5823C0.329914 50.0027 -0.907795 62.5693 1.50378 74.6931C3.91536 86.817 9.86791 97.9534 18.6087 106.694C27.3495 115.435 38.4859 121.387 50.6097 123.799C62.7335 126.211 75.3002 124.973 86.7206 120.242C98.141 115.512 107.902 107.501 114.77 97.2231C121.637 86.9451 125.303 74.8613 125.303 62.5C125.303 45.924 118.718 30.0268 106.997 18.3058C95.276 6.5848 79.3789 0 62.8029 0V0ZM62.8029 116.477C52.1272 116.477 41.6912 113.312 32.8147 107.38C23.9382 101.449 17.0198 93.0193 12.9344 83.1562C8.84895 73.2931 7.78002 62.4401 9.86275 51.9696C11.9455 41.499 17.0863 31.8812 24.6352 24.3323C32.184 16.7834 41.8018 11.6426 52.2724 9.55989C62.743 7.47716 73.596 8.54609 83.4591 12.6315C93.3221 16.7169 101.752 23.6353 107.683 32.5118C113.614 41.3883 116.78 51.8243 116.78 62.5C116.78 76.8157 111.093 90.545 100.971 100.668C90.8479 110.79 77.1185 116.477 62.8029 116.477Z" fill="#59B4D9"/>
</g>
<defs>
<clipPath id="clip0">
<rect width="125" height="125" fill="white" transform="translate(0.302856)"/>
</clipPath>
</defs>
</svg>
