<svg width="182" height="180" viewBox="0 0 182 180" fill="none" xmlns="http://www.w3.org/2000/svg">
<path d="M115.989 142.314C107.004 142.314 98.5387 137.822 93.4419 130.306C90.5912 125.987 85.84 123.482 80.7432 123.482C75.5601 123.482 70.9816 125.987 68.0445 130.306C63.0342 137.822 54.6547 142.4 45.4979 142.4C30.4668 142.4 18.2864 130.22 18.2864 115.189C18.2864 106.204 22.7785 97.7386 30.294 92.6419C34.6133 89.7912 37.1185 85.04 37.1185 79.9432C37.1185 74.7601 34.6133 70.1816 30.294 67.2445C22.7785 62.2341 18.2 53.8547 18.2 44.6979C18.2 29.6668 30.3804 17.4864 45.4115 17.4864C54.3956 17.4864 62.8614 21.9784 67.9581 29.494C70.8089 33.8133 75.5601 36.3185 80.6568 36.3185C85.7536 36.3185 90.5048 33.7269 93.3555 29.494C98.3659 21.9784 106.745 17.4 115.902 17.4C130.933 17.4 143.114 29.5804 143.114 44.6115C143.114 53.5956 138.622 62.0614 131.106 67.1581C126.787 70.0089 124.282 74.7601 124.282 79.8568C124.282 85.0399 126.787 89.6184 131.106 92.5555C138.622 97.5659 143.2 105.945 143.2 115.102C143.2 130.133 131.02 142.314 115.989 142.314ZM80.7432 116.139C88.2588 116.139 95.256 119.853 99.4889 126.16C103.29 131.688 109.423 134.971 115.989 134.971C126.96 134.971 135.857 126.073 135.857 115.102C135.857 108.45 132.575 102.317 127.046 98.6025C120.74 94.3696 116.939 87.286 116.939 79.7704C116.939 72.2549 120.653 65.2576 126.96 61.0247C132.488 57.2238 135.771 51.0904 135.771 44.5251C135.771 33.5541 126.873 24.6564 115.902 24.6564C109.25 24.6564 103.117 27.939 99.4025 33.4677C95.1696 39.7739 88.086 43.5748 80.6568 43.5748C73.2277 43.5748 66.144 39.8603 61.9111 33.5541C58.1102 28.0254 51.9768 24.7428 45.4115 24.7428C34.4405 24.7428 25.5428 33.6405 25.5428 44.6115C25.5428 51.2632 28.8254 57.3965 34.3541 61.1111C40.6603 65.344 44.4612 72.4276 44.4612 79.8568C44.4612 87.3724 40.7467 94.3696 34.4405 98.6025C28.9118 102.403 25.6292 108.537 25.6292 115.102C25.6292 126.073 34.5269 134.971 45.4979 134.971C52.1496 134.971 58.2829 131.688 61.9975 126.16C66.2304 119.853 73.2276 116.139 80.7432 116.139Z" fill="black" stroke="#4293F4"/>
<path d="M80.7432 111.042C75.2145 111.042 69.6859 108.969 65.453 104.822L56.0369 95.4926C47.5711 87.0268 47.4848 73.2051 55.8642 64.653L65.1938 55.2369C73.6596 46.7711 87.4813 46.6847 96.0335 55.0642L105.45 64.3938C109.596 68.4539 111.928 73.9826 111.928 79.7704C111.928 85.6447 109.682 91.087 105.622 95.2335L96.2926 104.65C92.0597 108.882 86.4447 111.042 80.7432 111.042ZM80.6568 56.0144C76.9423 56.0144 73.1413 57.3966 70.2906 60.2473L61.0473 69.7497C55.4322 75.4512 55.5186 84.608 61.1337 90.3095L70.5497 99.6391C76.2512 105.254 85.408 105.168 91.1095 99.5527L100.439 90.1367C103.203 87.3724 104.672 83.7442 104.672 79.8568C104.672 75.9695 103.117 72.3413 100.353 69.6633L90.9367 60.3337C88.086 57.3966 84.3714 56.0144 80.6568 56.0144Z" fill="black" stroke="#4293F4"/>
</svg>
