<svg width="125" height="125" viewBox="0 0 125 125" fill="none" xmlns="http://www.w3.org/2000/svg">
<path d="M68.025 90.525C66.8072 91.3175 65.5377 92.0274 64.225 92.65C62.5554 93.4532 60.835 94.1464 59.075 94.725C56.9251 95.4173 54.7276 95.9521 52.5 96.325C49.7489 96.7814 46.9635 96.9988 44.175 96.975C39.5751 97.007 35.0026 96.2633 30.65 94.775C26.5544 93.3847 22.7858 91.1729 19.575 88.275C16.3461 85.3086 13.7889 81.6859 12.075 77.65C10.1459 73.0377 9.20075 68.0735 9.29999 63.075C9.21062 58.044 10.1286 53.0459 12 48.375C13.6826 44.264 16.2421 40.5697 19.5 37.55C22.7574 34.5766 26.5968 32.3121 30.775 30.9C35.2748 29.3741 39.9986 28.6136 44.75 28.65C48.3604 28.5892 51.9662 28.933 55.5 29.675C58.0111 30.175 60.4419 31.0161 62.725 32.175C63.4201 32.5722 64.0882 33.0148 64.725 33.5C66.1699 34.3803 67.2471 35.7542 67.7573 37.3674C68.2675 38.9806 68.176 40.724 67.5 42.275C67.328 42.7284 67.0831 43.1506 66.775 43.525C64.275 46.75 59.1 44.875 56.15 43.525C52.7247 42.0971 49.0344 41.4153 45.325 41.525C42.5485 41.4986 39.7866 41.9293 37.15 42.8C34.6954 43.6069 32.45 44.9474 30.575 46.725C28.6664 48.5812 27.175 50.8226 26.2 53.3C25.0639 56.283 24.5204 59.459 24.6 62.65C24.5133 65.954 25.0826 69.2425 26.275 72.325C27.2928 74.8484 28.8849 77.0996 30.925 78.9C32.9196 80.6287 35.2525 81.9229 37.775 82.7C40.4894 83.5212 43.3144 83.9175 46.15 83.875C49.6915 84.0063 53.2224 83.4107 56.525 82.125C58.363 81.3566 60.15 80.4715 61.875 79.475L68.025 90.525Z" fill="#83BC41"/>
<path d="M58.175 79.05C59.1962 79.7064 60.2758 80.2671 61.4 80.725C63.2695 81.5339 65.1805 82.2432 67.125 82.85C69.6796 83.6507 72.2856 84.2772 74.925 84.725C78.0796 85.262 81.2752 85.5214 84.475 85.5C88.2032 85.6202 91.92 85.0262 95.425 83.75C96.6896 83.3482 97.7887 82.5451 98.5556 81.4623C99.3226 80.3795 99.7156 79.0762 99.675 77.75C99.7306 76.6827 99.5117 75.619 99.039 74.6604C98.5663 73.7019 97.8556 72.8806 96.975 72.275C93.9906 70.6748 90.6834 69.769 87.3 69.625L77.3 68.45C74.1027 68.1474 70.9447 67.5192 67.875 66.575C65.1813 65.793 62.6437 64.5495 60.375 62.9C58.3438 61.3821 56.6922 59.4139 55.55 57.15C54.3355 54.6001 53.7443 51.7982 53.825 48.975C53.8082 46.2918 54.3532 43.6349 55.425 41.175C56.5534 38.6429 58.2671 36.4151 60.425 34.675C63.127 32.5928 66.2225 31.0791 69.525 30.225C73.9619 29.0595 78.5385 28.5127 83.125 28.6C90.1885 28.3059 97.2462 29.3057 103.95 31.55C105.471 32.1605 106.915 32.9494 108.25 33.9C109.651 34.6535 110.7 35.9287 111.168 37.4494C111.635 38.9702 111.485 40.614 110.75 42.025C108.525 46.2 103.825 44.225 103.4 44C102.298 43.4327 101.162 42.9318 100 42.5C94.6696 40.5855 89.0383 39.6456 83.375 39.725C73.375 39.725 68.375 42.35 68.375 47.6C68.3534 48.6103 68.6043 49.6078 69.1014 50.4877C69.5985 51.3675 70.3234 52.0972 71.2 52.6C73.715 53.941 76.4825 54.7414 79.325 54.95L92.45 56.675C98.4046 57.1899 104.128 59.2211 109.075 62.575C111.071 64.1132 112.657 66.1208 113.69 68.4192C114.724 70.7176 115.174 73.2358 115 75.75C115.083 78.7602 114.426 81.7449 113.088 84.4426C111.75 87.1404 109.772 89.4692 107.325 91.225C102.208 95.0917 94.8417 97.025 85.225 97.025C80.9604 97.0584 76.7015 96.707 72.5 95.975C69.1685 95.4096 65.878 94.6246 62.65 93.625C60.3455 92.9002 58.0977 92.0061 55.925 90.95C54.7501 90.4156 53.6284 89.7711 52.575 89.025L58.175 79.05Z" fill="#496487"/>
<path d="M61.4 80.7L60.4 80.275C59.125 80.95 57.9 81.575 56.475 82.15L54.25 85.625L52.5 89.025C53.4889 89.8214 54.572 90.4931 55.725 91.025C57.7033 92.3193 59.9374 93.172 62.275 93.525L64.175 92.675C65.4877 92.0524 66.7573 91.3425 67.975 90.55L62.8 81.325L61.4 80.7Z" fill="#83BC41"/>
</svg>
