<svg width="125" height="125" viewBox="0 0 125 125" fill="none" xmlns="http://www.w3.org/2000/svg">
<path d="M108.348 46.6475C108.835 44.37 109.075 42.2 109.075 40.04C109.075 23.475 95.58 10 78.9875 10C73.3564 9.98775 67.8356 11.5606 63.0564 14.5386C58.2772 17.5166 54.4327 21.7796 51.9625 26.84C47.9025 22.7983 42.4063 20.5302 36.6775 20.5325C24.77 20.5325 15.0825 30.22 15.0825 42.125C15.0825 43.74 15.2625 45.37 15.6275 47.045C5.82 51.04 0 59.3275 0 69.4075C0 83 11.1075 93.6475 25.2825 93.6475H26.8975C27.1725 106.068 37.3475 116.085 49.8075 116.085C53.8802 116.093 57.881 115.013 61.3957 112.955C64.9103 110.898 67.8111 107.938 69.7975 104.383C72.822 107.008 76.6925 108.453 80.6975 108.453C89.2475 108.453 96.32 101.975 97.3225 93.6475H99.725C113.9 93.6475 125 83 125 69.4075C125 58.91 118.64 50.2725 108.348 46.6475Z" fill="#59B4D9"/>
<path d="M98.5924 57.9801L100.432 53.6226L99.8999 53.1626L95.8824 49.6726L95.9024 46.1451L100.432 42.0951L98.6499 37.7126L97.9524 37.7601L92.6399 38.1401L90.1599 35.6251L90.4974 29.5551L86.1424 27.7176L85.6824 28.2476L82.1899 32.2701L78.6599 32.2451L74.6074 27.7201L70.2274 29.4976L70.2774 30.2001L70.6524 35.5126L68.1424 37.9876L62.0724 37.6501L60.2324 42.0076L60.7649 42.4676L64.7849 45.9601L64.7624 49.4901L60.2374 53.5426L62.0149 57.9226L62.7174 57.8701L68.0249 57.4976L70.5049 60.0101L70.1674 66.0751L74.5249 67.9151L74.9849 67.3826L78.4749 63.3626L82.0049 63.3876L86.0574 67.9176L90.4374 66.1376L90.3874 65.4326L90.0124 60.1226L92.5274 57.6426L98.5924 57.9801ZM76.5699 56.7326C75.3987 56.2385 74.3363 55.5185 73.4433 54.6138C72.5503 53.7091 71.8442 52.6374 71.3654 51.4598C70.3985 49.0816 70.4158 46.4167 71.4137 44.0513C72.4116 41.6859 74.3082 39.8138 76.6864 38.8468C79.0646 37.8798 81.7295 37.8972 84.0949 38.8951C86.4603 39.8929 88.3324 41.7896 89.2994 44.1678C90.2664 46.546 90.2491 49.2109 89.2512 51.5763C88.2533 53.9417 86.3567 55.8138 83.9785 56.7808C81.6003 57.7478 78.9353 57.7304 76.5699 56.7326ZM70.8924 79.8701V75.1376L70.2274 74.9226L65.1649 73.2651L63.8174 70.0051L66.4174 64.5101L63.0774 61.1676L62.4499 61.4851L57.7024 63.8901L54.4399 62.5376L52.3949 56.8151L47.6674 56.8101L47.4499 57.4826L45.7924 62.5401L42.5324 63.8876L37.0374 61.2901L33.6949 64.6326L34.0124 65.2601L36.4174 70.0101L35.0674 73.2651L29.3424 75.3126L29.3399 80.0401L30.0074 80.2601L35.0699 81.9126L36.4174 85.1776L33.8174 90.6676L37.1574 94.0176L37.7849 93.6976L42.5374 91.2876L45.7924 92.6401L47.8399 98.3626L52.5674 98.3651L52.7849 97.7001L54.4424 92.6376L57.7049 91.2901L63.1949 93.8901L66.5424 90.5501L66.2249 89.9226L63.8149 85.1751L65.1699 81.9126L70.8924 79.8701ZM50.1099 87.2701C48.8386 87.2689 47.5799 87.0174 46.4057 86.5298C45.2316 86.0422 44.165 85.3281 43.2668 84.4283C42.3686 83.5285 41.6565 82.4606 41.171 81.2856C40.6856 80.1106 40.4363 78.8514 40.4374 77.5801C40.4386 76.3087 40.6901 75.05 41.1777 73.8759C41.6653 72.7017 42.3794 71.6351 43.2792 70.7369C44.179 69.8388 45.2469 69.1266 46.4219 68.6412C47.5969 68.1557 48.8561 67.9064 50.1274 67.9076C52.6951 67.9099 55.1566 68.9321 56.9706 70.7493C58.7845 72.5665 59.8023 75.0299 59.7999 77.5976C59.7976 80.1652 58.7754 82.6267 56.9582 84.4407C55.1409 86.2546 52.6776 87.2724 50.1099 87.2701Z" fill="white"/>
<path d="M86.1226 50.2575C85.8129 51.0333 85.3517 51.7396 84.7659 52.3351C84.18 52.9305 83.4813 53.4031 82.7107 53.7253C81.94 54.0475 81.1128 54.2127 80.2775 54.2114C79.4421 54.2101 78.6155 54.0422 77.8458 53.7175C77.0762 53.3929 76.379 52.918 75.7951 52.3207C75.2111 51.7233 74.7522 51.0156 74.4451 50.2388C74.138 49.462 73.9888 48.6317 74.0064 47.7966C74.024 46.9614 74.208 46.1382 74.5476 45.375C75.2163 43.872 76.4478 42.6913 77.9777 42.0864C79.5075 41.4816 81.2135 41.501 82.7292 42.1403C84.245 42.7797 85.4494 43.988 86.0839 45.5058C86.7184 47.0235 86.7323 48.7296 86.1226 50.2575ZM56.4026 77.5925C56.4016 79.2587 55.7387 80.8563 54.5598 82.0338C53.3809 83.2113 51.7825 83.8722 50.1163 83.8713C48.4501 83.8703 46.8525 83.2074 45.675 82.0285C44.4975 80.8496 43.8366 79.2512 43.8376 77.585C43.838 76.76 44.001 75.9431 44.3172 75.1811C44.6334 74.419 45.0966 73.7267 45.6803 73.1437C46.264 72.5607 46.9569 72.0983 47.7193 71.783C48.4817 71.4678 49.2988 71.3058 50.1238 71.3063C50.9488 71.3067 51.7657 71.4697 52.5277 71.7859C53.2898 72.1021 53.9821 72.5653 54.5651 73.149C55.1481 73.7327 55.6105 74.4256 55.9258 75.188C56.241 75.9504 56.403 76.7675 56.4026 77.5925Z" fill="#B8D432"/>
</svg>
