<svg width="125" height="125" viewBox="0 0 125 125" fill="none" xmlns="http://www.w3.org/2000/svg">
<path d="M108.348 46.6475C108.835 44.37 109.075 42.2 109.075 40.04C109.075 23.475 95.58 10 78.9875 10C67.41 10 56.9875 16.555 51.9625 26.84C47.915 22.815 42.44 20.5325 36.6775 20.5325C24.77 20.5325 15.0825 30.22 15.0825 42.125C15.0825 43.74 15.2625 45.37 15.6275 47.045C5.82 51.04 0 59.3275 0 69.4075C0 83 11.1075 93.6475 25.2825 93.6475H26.8975C27.1725 106.067 37.3475 116.085 49.8075 116.085C58.195 116.085 65.79 111.562 69.7975 104.382C72.8125 106.995 76.6675 108.452 80.6975 108.452C89.2475 108.452 96.32 101.975 97.3225 93.6475H99.725C113.9 93.6475 125 83 125 69.4075C125 58.91 118.64 50.2725 108.348 46.6475Z" fill="#3E3E3E"/>
<path d="M98.5925 57.98L100.433 53.6225L99.9 53.1625L95.8825 49.6725L95.9025 46.145L100.433 42.095L98.65 37.7125L97.9525 37.76L92.64 38.14L90.16 35.625L90.4975 29.555L86.1425 27.7175L85.6825 28.2475L82.19 32.27L78.66 32.245L74.6075 27.72L70.2275 29.4975L70.2775 30.2L70.6525 35.5125L68.1425 37.9875L62.0725 37.65L60.2325 42.0075L60.765 42.4675L64.785 45.96L64.7625 49.49L60.2375 53.5425L62.015 57.9225L62.7175 57.87L68.025 57.4975L70.505 60.01L70.1675 66.075L74.525 67.915L74.985 67.3825L78.475 63.3625L82.005 63.3875L86.0575 67.9175L90.4375 66.1375L90.3875 65.4325L90.0125 60.1225L92.5275 57.6425L98.5925 57.98ZM76.57 56.7325C71.6425 54.655 69.335 48.9775 71.415 44.055C73.4975 39.125 79.17 36.82 84.095 38.8975C89.02 40.9775 91.3275 46.655 89.25 51.58C87.17 56.505 81.4975 58.8125 76.57 56.7325Z" fill="white"/>
<path d="M70.8925 79.87V75.1375L70.2275 74.9225L65.165 73.265L63.8175 70.005L66.4175 64.51L63.0775 61.1675L62.45 61.485L57.7025 63.89L54.44 62.5375L52.395 56.815L47.6675 56.81L47.45 57.4825L45.7925 62.54L42.5325 63.8875L37.0375 61.29L33.695 64.6325L34.0125 65.26L36.4175 70.01L35.0675 73.265L29.3425 75.3125L29.34 80.04L30.0075 80.26L35.07 81.9125L36.4175 85.1775L33.8175 90.6675L37.1575 94.0175L37.785 93.6975L42.5375 91.2875L45.7925 92.64L47.84 98.3625L52.5675 98.365L52.785 97.7L54.4425 92.6375L57.705 91.29L63.195 93.89L66.5425 90.55L66.225 89.9225L63.815 85.175L65.17 81.9125L70.8925 79.87ZM50.11 87.27C44.765 87.2675 40.4375 82.93 40.4375 77.585C40.4425 72.2375 44.7775 67.91 50.125 67.9125C55.4725 67.915 59.8025 72.25 59.7975 77.5975C59.795 82.9425 55.4575 87.2725 50.11 87.27Z" fill="white"/>
<path d="M86.1225 50.2575C84.775 53.455 81.0875 54.9525 77.89 53.6025C74.6925 52.2525 73.195 48.5675 74.545 45.37C75.895 42.1775 79.58 40.675 82.7775 42.025C85.9725 43.375 87.47 47.06 86.1225 50.2575Z" fill="#B8D432"/>
<path d="M56.4025 77.5925C56.4 81.065 53.5825 83.8775 50.115 83.875C46.645 83.8725 43.835 81.0575 43.8375 77.585C43.84 74.115 46.655 71.3025 50.12 71.305C53.5925 71.3075 56.405 74.1225 56.4025 77.5925Z" fill="#B8D432"/>
</svg>
