<svg width="125" height="125" viewBox="0 0 125 125" fill="none" xmlns="http://www.w3.org/2000/svg">
<path d="M125 92.995C125 105.497 97.015 115.63 62.5 115.63C27.985 115.63 0 105.497 0 92.995V80.795H125V92.995Z" fill="#7FBA00"/>
<path d="M125 80.795C125 93.2975 97.015 103.43 62.5 103.43C27.985 103.43 0 93.2975 0 80.795C0 68.295 27.9825 58.16 62.5 58.16C97.0175 58.16 125 68.295 125 80.795Z" fill="#B8D432"/>
<path d="M82.5325 79.4925C82.5325 82.8175 73.5625 85.51 62.4975 85.51C51.4325 85.51 42.46 82.8175 42.46 79.4925C42.46 76.1675 51.4325 73.475 62.4975 73.475C73.5625 73.475 82.5325 76.17 82.5325 79.4925Z" fill="#7FBA00"/>
<path opacity="0.25" d="M107.677 65.2875C98.9225 61.97 87.4175 59.615 74.48 58.705L66.37 73.715C70.36 73.95 73.9275 74.5375 76.6875 75.37L107.677 65.2875Z" fill="white"/>
<path opacity="0.25" d="M14.755 95.52C23.7575 99.3775 36.25 102.128 50.475 103.133L59.9575 85.5826C56.01 85.4326 52.4225 84.94 49.5375 84.2025L14.755 95.52Z" fill="white"/>
<path d="M125 44.205C125 56.7075 97.015 66.84 62.5 66.84C27.985 66.84 0 56.705 0 44.205V32.005H125V44.205Z" fill="#0072C6"/>
<path d="M125 32.005C125 44.5075 97.015 54.64 62.5 54.64C27.985 54.64 0 44.505 0 32.005C0 19.505 27.9825 9.36998 62.5 9.36998C97.0175 9.36998 125 19.5025 125 32.005Z" fill="#59B4D9"/>
<path d="M82.5325 30.7025C82.5325 34.0275 73.5625 36.72 62.4975 36.72C51.4325 36.72 42.46 34.0275 42.46 30.7025C42.46 27.3775 51.4325 24.685 62.4975 24.685C73.5625 24.685 82.5325 27.3775 82.5325 30.7025Z" fill="#0072C6"/>
<path opacity="0.25" d="M107.677 16.3725C98.9225 13.055 87.4175 10.7 74.48 9.79002L66.37 24.8C70.36 25.035 73.9275 25.6225 76.6875 26.455L107.677 16.3725Z" fill="white"/>
<path opacity="0.25" d="M14.755 46.605C23.7575 50.4625 36.25 53.2125 50.475 54.2175L59.9575 36.6675C56.01 36.5175 52.4225 36.025 49.5375 35.2875L14.755 46.605Z" fill="white"/>
</svg>
