<svg width="125" height="125" viewBox="0 0 125 125" fill="none" xmlns="http://www.w3.org/2000/svg">
<path d="M25 10H0V35H7.5V17.5H25V10Z" fill="#7A7A7A"/>
<path d="M0 90V115H25V107.5H7.5V90H0Z" fill="#7A7A7A"/>
<path d="M100 115H125V90H117.5V107.5H100V115Z" fill="#7A7A7A"/>
<path d="M125 35V10H100V17.5H117.5V35H125Z" fill="#7A7A7A"/>
<path d="M112.5 86.8925C112.5 96.8925 90.115 105 62.505 105C34.895 105 12.51 96.895 12.51 86.8925V77.1325H112.5V86.8925Z" fill="#7FBA00"/>
<path d="M112.5 77.135C112.5 87.135 90.115 95.2425 62.505 95.2425C34.895 95.2425 12.51 87.135 12.51 77.135C12.51 67.135 34.895 59.0275 62.505 59.0275C90.115 59.0275 112.5 67.135 112.5 77.135Z" fill="#B8D432"/>
<path d="M78.5299 76.0925C78.5299 78.7525 71.3549 80.905 62.5024 80.905C53.6499 80.905 46.4749 78.75 46.4749 76.0925C46.4749 73.4325 53.6524 71.28 62.5024 71.28C71.3524 71.28 78.5299 73.435 78.5299 76.0925Z" fill="#7FBA00"/>
<path opacity="0.25" d="M78.5299 76.0925C78.5299 78.7525 71.3549 80.905 62.5024 80.905C53.6499 80.905 46.4749 78.75 46.4749 76.0925C46.4749 73.4325 53.6524 71.28 62.5024 71.28C71.3524 71.28 78.5299 73.435 78.5299 76.0925Z" fill="#00188F"/>
<path opacity="0.25" d="M98.6425 64.73C91.64 62.0775 82.435 60.1925 72.0875 59.465L65.6 71.4725C68.7925 71.66 71.645 72.13 73.8525 72.7975L98.6425 64.73Z" fill="white"/>
<path opacity="0.25" d="M24.3125 88.9124C31.515 91.9974 41.5075 94.1974 52.885 95.0024L60.47 80.965C57.3125 80.845 54.4425 80.45 52.135 79.86L24.3125 88.9124Z" fill="white"/>
<path d="M112.5 47.865C112.5 57.865 90.115 65.9725 62.505 65.9725C34.895 65.9725 12.51 57.865 12.51 47.865V38.105H112.5V47.865Z" fill="#0072C6"/>
<path d="M112.5 38.1075C112.5 48.1075 90.115 56.215 62.505 56.215C34.895 56.215 12.51 48.105 12.51 38.1075C12.51 28.11 34.8925 20 62.505 20C90.1175 20 112.5 28.105 112.5 38.1075Z" fill="#59B4D9"/>
<path d="M78.5299 37.065C78.5299 39.725 71.3549 41.8775 62.5024 41.8775C53.6499 41.8775 46.4749 39.7225 46.4749 37.065C46.4749 34.4075 53.6524 32.2525 62.5024 32.2525C71.3524 32.2525 78.5299 34.405 78.5299 37.065Z" fill="#0072C6"/>
<path opacity="0.25" d="M98.6425 25.6025C91.64 22.9475 82.435 21.065 72.0875 20.3375L65.6 32.345C68.7925 32.5325 71.645 33.0025 73.8525 33.67L98.6425 25.6025Z" fill="white"/>
<path opacity="0.25" d="M24.3125 49.785C31.515 52.87 41.5075 55.07 52.885 55.875L60.47 41.8375C57.3125 41.7175 54.4425 41.3225 52.135 40.7325L24.3125 49.785Z" fill="white"/>
</svg>
