<svg width="125" height="125" viewBox="0 0 125 125" fill="none" xmlns="http://www.w3.org/2000/svg">
<g clip-path="url(#clip0)">
<path d="M124.219 63.2813C125.391 62.1094 125.195 59.961 124.219 58.7891L118.164 52.7344L91.2109 26.5625C90.0391 25.3907 88.2812 25.3907 86.9141 26.5625C85.7422 27.7344 85.3516 29.8828 86.9141 31.0547L115.234 58.7891C116.406 59.961 116.406 62.1094 115.234 63.2813L86.3281 91.9922C85.1563 93.1641 85.1563 95.3125 86.3281 96.4844C87.5 97.6563 89.6484 97.461 90.625 96.4844L117.383 69.9219C117.383 69.9219 117.383 69.9219 117.578 69.7266L124.219 63.2813Z" fill="#3999C6"/>
<path d="M0.781229 63.2813C-0.390646 62.1094 -0.195333 59.961 0.781229 58.7891L6.83592 52.7344L33.789 26.5625C34.9609 25.3907 36.7187 25.3907 38.0859 26.5625C39.2578 27.7344 39.6484 29.8828 38.0859 31.0547L10.3515 58.7891C9.17967 59.961 9.17967 62.1094 10.3515 63.2813L38.6719 91.9922C39.8437 93.1641 39.8437 95.3125 38.6719 96.4844C37.5 97.6563 35.3515 97.461 34.375 96.4844L7.03123 70.3125C7.03123 70.3125 7.03123 70.3125 6.83592 70.1172L0.781229 63.2813Z" fill="#3999C6"/>
<path d="M92.9687 4.88281H54.8828L34.375 62.6953L59.375 62.8906L39.8437 120.117L93.75 43.75H67.5781L92.9687 4.88281Z" fill="#FCD116"/>
<path opacity="0.3" d="M67.5781 43.75L92.9687 4.88281H73.0468L51.9531 52.9297L76.9531 53.125L39.8437 120.117L93.75 43.75H67.5781Z" fill="#FF8C00"/>
</g>
<defs>
<clipPath id="clip0">
<rect width="125" height="125" fill="white"/>
</clipPath>
</defs>
</svg>
