<svg width="125" height="125" viewBox="0 0 125 125" fill="none" xmlns="http://www.w3.org/2000/svg">
<path d="M62.0787 1.79147C61.0042 1.8472 59.9515 2.12153 58.9822 2.59835L16.7284 23.3882C15.6348 23.926 14.6738 24.7085 13.917 25.6777C13.1601 26.6468 12.6268 27.7777 12.3566 28.9863L1.93228 75.6855C1.69157 76.7614 1.66463 77.8757 1.85306 78.9625C2.04149 80.0493 2.44145 81.0864 3.02929 82.0126C3.17183 82.239 3.32512 82.4581 3.48863 82.6692L32.735 120.114C33.492 121.083 34.4531 121.865 35.5467 122.403C36.6404 122.941 37.8386 123.22 39.0523 123.219L85.9535 123.208C87.1668 123.209 88.3647 122.931 89.4583 122.394C90.5519 121.858 91.5132 121.077 92.2708 120.109L121.506 82.6581C122.264 81.6887 122.798 80.5574 123.068 79.3483C123.338 78.1392 123.338 76.8834 123.068 75.6743L112.628 28.9751C112.357 27.7666 111.824 26.6357 111.067 25.6666C110.31 24.6974 109.349 23.9149 108.256 23.377L65.9966 2.59835C64.7774 1.99855 63.4302 1.7211 62.0787 1.79147Z" fill="#326CE5"/>
<path d="M62.4974 17.6838C61.1007 17.684 59.9682 18.9795 59.9684 20.5775C59.9684 20.602 59.9732 20.6255 59.9738 20.6498C59.9717 20.867 59.9615 21.1286 59.9684 21.3176C60.0017 22.2393 60.1968 22.9447 60.3142 23.7939C60.527 25.6114 60.7052 27.118 60.5952 28.5184C60.4882 29.0464 60.1105 29.5293 59.7738 29.865L59.7144 30.9668C58.1966 31.0963 56.6687 31.3334 55.1426 31.6902C48.5757 33.2256 42.9218 36.7088 38.6172 41.4118C38.3379 41.2156 37.8492 40.8546 37.7039 40.7441C37.2524 40.8068 36.796 40.9503 36.2016 40.5938C35.0698 39.8093 34.039 38.7264 32.7917 37.4219C32.2202 36.7979 31.8063 36.2037 31.1273 35.6023C30.9731 35.4657 30.7377 35.2809 30.5652 35.1404C30.0344 34.7045 29.4082 34.4772 28.8035 34.4559C28.0261 34.4285 27.2776 34.7415 26.7879 35.3741C25.9171 36.4987 26.1959 38.2175 27.4093 39.2138C27.4216 39.2239 27.4347 39.2317 27.4471 39.2416C27.6139 39.3808 27.8181 39.5591 27.9713 39.6756C28.6919 40.2235 29.3501 40.5039 30.0681 40.9388C31.5807 41.9007 32.8346 42.6983 33.8293 43.66C34.2177 44.0863 34.2855 44.8375 34.3372 45.1624L35.1478 45.9081C30.8085 52.6327 28.8002 60.939 29.987 69.4024L28.9278 69.7196C28.6487 70.0908 28.2542 70.6749 27.8416 70.8492C26.5403 71.2713 25.0758 71.4263 23.3077 71.6171C22.4776 71.6882 21.7613 71.6458 20.8813 71.8175C20.6876 71.8553 20.4177 71.9277 20.2058 71.9789C20.1984 71.9805 20.1916 71.9827 20.1842 71.9844C20.1726 71.9872 20.1575 71.9929 20.1464 71.9955C18.6557 72.3664 17.6981 73.7773 18.0064 75.1674C18.3147 76.5579 19.7708 77.4034 21.2704 77.0706C21.2812 77.068 21.2969 77.0676 21.3082 77.065C21.3251 77.061 21.34 77.0526 21.3568 77.0483C21.5659 77.0011 21.8279 76.9485 22.0107 76.8981C22.8759 76.6595 23.5026 76.309 24.2804 76.0022C25.9538 75.3841 27.3398 74.8678 28.6901 74.6666C29.254 74.6211 29.8482 75.0249 30.1437 75.1953L31.2461 75.0005C33.783 83.0997 39.0995 89.646 45.8315 93.7536L45.3722 94.8888C45.5377 95.3296 45.7204 95.926 45.597 96.3614C45.1061 97.6722 44.2653 99.0558 43.3079 100.598C42.8443 101.311 42.3698 101.864 41.9515 102.679C41.8513 102.875 41.7238 103.174 41.6272 103.381C40.9772 104.813 41.454 106.462 42.7026 107.081C43.9591 107.704 45.5186 107.047 46.1936 105.612C46.1946 105.61 46.198 105.609 46.199 105.606C46.1997 105.605 46.1983 105.602 46.199 105.601C46.2951 105.397 46.4313 105.13 46.5124 104.939C46.8707 104.093 46.99 103.369 47.2419 102.551C47.9111 100.821 48.2788 99.0045 49.1999 97.8728C49.4522 97.5629 49.8634 97.4437 50.2898 97.3262L50.8626 96.2578C56.7315 98.5775 63.3007 99.1999 69.863 97.6656C71.3601 97.3156 72.8053 96.8626 74.2024 96.319C74.3634 96.613 74.6626 97.1783 74.7428 97.3206C75.1761 97.4658 75.6491 97.5408 76.0344 98.1275C76.7236 99.34 77.1949 100.774 77.7691 102.507C78.0211 103.325 78.1456 104.049 78.504 104.894C78.5857 105.087 78.7212 105.358 78.8174 105.562C79.491 107.002 81.0555 107.661 82.3138 107.037C83.5623 106.417 84.0396 104.768 83.3892 103.336C83.2926 103.13 83.1597 102.83 83.0596 102.635C82.6412 101.819 82.1668 101.272 81.7032 100.559C80.7456 99.0169 79.9515 97.7355 79.4605 96.4247C79.2552 95.7486 79.4952 95.3282 79.6551 94.8888C79.5593 94.7758 79.3544 94.1374 79.2336 93.8371C86.2298 89.5833 91.3901 82.7929 93.8135 74.9504C94.1408 75.0034 94.7096 75.107 94.8943 75.1452C95.2747 74.8869 95.6244 74.5498 96.3102 74.6054C97.6604 74.8065 99.0464 75.323 100.72 75.941C101.498 76.2478 102.124 76.6039 102.989 76.8424C103.172 76.8929 103.434 76.9399 103.643 76.9871C103.66 76.9914 103.675 76.9998 103.692 77.0038C103.703 77.0064 103.719 77.0068 103.73 77.0094C105.23 77.3418 106.686 76.4968 106.994 75.1062C107.302 73.716 106.345 72.3048 104.854 71.9343C104.637 71.8836 104.33 71.7973 104.119 71.7563C103.239 71.5847 102.523 71.627 101.693 71.5559C99.9244 71.3652 98.4599 71.21 97.1586 70.788C96.628 70.5761 96.2505 69.9259 96.067 69.6584L95.0456 69.3523C95.5752 65.4073 95.4324 61.3015 94.516 57.1934C93.5911 53.0471 91.9566 49.2548 89.7767 45.9137C90.0387 45.6684 90.5335 45.2173 90.6738 45.0845C90.7148 44.6173 90.6796 44.1273 91.1493 43.6099C92.1439 42.6482 93.398 41.8507 94.9105 40.8887C95.6285 40.4538 96.2921 40.1734 97.0127 39.6256C97.1756 39.5017 97.3981 39.3055 97.5693 39.1637C98.7824 38.1671 99.0618 36.4484 98.1907 35.324C97.3197 34.1997 95.6319 34.0938 94.4188 35.0903C94.2461 35.2311 94.0118 35.4148 93.8567 35.5522C93.1777 36.1537 92.7584 36.7478 92.1869 37.3718C90.9397 38.6764 89.9088 39.7647 88.777 40.5493C88.2866 40.8433 87.5682 40.7416 87.2422 40.7218L86.2803 41.4285C80.7953 35.5058 73.3273 31.7191 65.2859 30.9835C65.2634 30.6365 65.2339 30.0093 65.2264 29.8205C64.8972 29.4961 64.4996 29.2192 64.3996 28.5184C64.2896 27.118 64.4733 25.6114 64.686 23.7939C64.8035 22.9447 64.9986 22.2393 65.0319 21.3176C65.0395 21.1081 65.0273 20.804 65.0265 20.5775C65.0263 18.9795 63.8942 17.6837 62.4974 17.6838H62.4974ZM59.3307 37.8838L58.5795 51.5452L58.5255 51.573C58.4751 52.7952 57.4983 53.7711 56.299 53.7711C55.8078 53.7711 55.3544 53.6086 54.9859 53.3315L54.9643 53.3426L44.086 45.4017C47.4294 42.0164 51.7057 39.5146 56.6341 38.3624C57.5344 38.1519 58.4342 37.9957 59.3307 37.8838ZM65.6696 37.8838C71.4235 38.6125 76.7447 41.2954 80.8223 45.4073L70.0144 53.2981L69.9765 53.2814C69.0172 54.0029 67.6656 53.8239 66.9179 52.8585C66.6116 52.463 66.4509 51.998 66.4315 51.5285L66.4207 51.5229L65.6696 37.8838ZM40.1411 50.5046L50.0737 59.653L50.0628 59.7086C50.9594 60.5112 51.0916 61.9039 50.3439 62.8694C50.0376 63.2649 49.6276 63.5302 49.1874 63.654L49.1766 63.6985L36.4448 67.4826C35.7968 61.3809 37.1933 55.4496 40.1411 50.5046ZM84.7835 50.5101C86.2593 52.9733 87.3768 55.7244 88.0421 58.707C88.6994 61.6537 88.8643 64.5952 88.5933 67.438L75.7966 63.6429L75.7858 63.5872C74.6399 63.2647 73.9357 62.0644 74.2025 60.8605C74.3118 60.3673 74.566 59.9501 74.9104 59.6418L74.905 59.614L84.7835 50.5101H84.7835ZM60.4601 60.3597H64.5293L67.0584 63.6151L66.1505 67.6773L62.4974 69.4858L58.8335 67.6717L57.9257 63.6095L60.4601 60.3597ZM73.5053 71.5003C73.6783 71.4913 73.8504 71.5073 74.0187 71.5392L74.0403 71.5114L87.2099 73.8041C85.2825 79.38 81.5944 84.2106 76.6667 87.4432L71.5545 74.7278L71.5707 74.7056C71.1011 73.5819 71.5711 72.2643 72.6515 71.7284C72.9281 71.5912 73.2171 71.5153 73.5053 71.5003H73.5053ZM51.3868 71.5559C52.3918 71.5704 53.2933 72.2887 53.5268 73.3422C53.6361 73.8354 53.5829 74.324 53.4025 74.7556L53.4403 74.8057L48.3822 87.3931C43.6531 84.2682 39.8864 79.5893 37.8714 73.8486L50.9275 71.5671L50.9491 71.5949C51.0951 71.5672 51.2433 71.5539 51.3868 71.5559V71.5559ZM62.4164 77.0706C62.7664 77.0573 63.1217 77.1313 63.4593 77.2987C63.9019 77.5182 64.2439 77.8638 64.4591 78.2781H64.5077L70.9439 90.2534C70.1086 90.5417 69.2498 90.7882 68.3716 90.9935C63.4493 92.1444 58.5426 91.7957 54.0996 90.2367L60.5196 78.2837H60.5304C60.9156 77.5421 61.6462 77.0997 62.4164 77.0706Z" fill="white" stroke="white" stroke-width="0.25"/>
</svg>
