<svg width="125" height="125" viewBox="0 0 125 125" fill="none" xmlns="http://www.w3.org/2000/svg">
<g clip-path="url(#clip0)">
<path d="M62.5025 125C59.4225 125 56.5225 123.8 54.35 121.62L3.3775 70.6496C1.23 68.5021 0 65.5346 0 62.4971C0 59.4621 1.23 56.4921 3.3775 54.3471L54.35 3.37707C56.5275 1.19707 59.4225 -0.00292969 62.5025 -0.00292969C65.58 -0.00292969 68.4775 1.19707 70.655 3.37707L121.62 54.3471C123.802 56.5171 125 59.4146 125 62.4971C125 65.5796 123.802 68.4771 121.618 70.6546L70.655 121.62C68.48 123.8 65.58 125 62.5025 125Z" fill="#7FBA00"/>
<path d="M114.032 61.6493L97.4999 45.1193V56.7893L79.9599 56.7743C78.2674 50.7293 73.5274 45.9543 67.4999 44.2243V27.4993H79.0324L62.4999 10.9668L45.9699 27.4993H57.4999V44.2218C51.4824 45.9518 46.7474 50.7118 45.0474 56.7418L27.4999 56.7268V45.1818L10.9674 61.7143L27.4999 78.2443V66.5743L45.0549 66.5893C46.7624 72.6068 51.4899 77.3518 57.4999 79.0793V90.6693C54.9999 92.4893 51.1799 96.3143 51.1799 100.769C51.1799 106.972 56.2624 112.019 62.4649 112.019C68.6674 112.019 73.7399 106.972 73.7399 100.769C73.7399 96.3643 69.9999 92.5843 67.4999 90.7368V79.0793C73.4974 77.3568 78.2224 72.6218 79.9374 66.6218L97.4999 66.6368V78.1818L114.032 61.6493Z" fill="white"/>
<path d="M62.4999 48.5059C55.2524 48.5059 49.3549 54.4034 49.3549 61.6509C49.3549 68.8984 55.2524 74.7959 62.4999 74.7959C69.7474 74.7959 75.6449 68.9009 75.6449 61.6509C75.6449 54.4009 69.7474 48.5059 62.4999 48.5059Z" fill="#59B4D9"/>
<path opacity="0.15" d="M70.655 3.37707C68.4775 1.19707 65.5825 -0.00292969 62.5025 -0.00292969C59.425 -0.00292969 56.53 1.19707 54.3525 3.37707L3.38 54.3471C1.23 56.4921 0 59.4621 0 62.4971C0 65.5346 1.23 68.5046 3.38 70.6496L32.2375 99.5096L86.525 19.2446L70.655 3.37707Z" fill="white"/>
</g>
<defs>
<clipPath id="clip0">
<rect width="125" height="125" fill="white"/>
</clipPath>
</defs>
</svg>
