<svg width="125" height="125" viewBox="0 0 125 125" fill="none" xmlns="http://www.w3.org/2000/svg">
<path fill-rule="evenodd" clip-rule="evenodd" d="M65.625 56.5625V44.6875H58.75V56.5625C58.75 66.0938 36.7188 56.5625 36.7188 72.0312V84.375H41.875V72.0312C41.875 63.75 62.1875 68.8281 62.1875 61.1719C62.1875 68.883 82.5 63.75 82.5 72.0312V84.375H87.6562V72.0312C87.6562 56.5625 65.625 66.0938 65.625 56.5625Z" fill="#59B4D9"/>
<path fill-rule="evenodd" clip-rule="evenodd" d="M68.0916 28.125H56.1259C53.6358 28.125 51.875 29.9962 51.875 32.5V44.5312C51.875 47.035 53.6358 48.75 56.1259 48.75H68.0916C70.5839 48.75 72.5 47.035 72.5 44.5312V32.5C72.5 29.9962 70.3925 28.125 68.0916 28.125ZM58.0153 42.6562H66.2023V34.375H58.0153V42.6562Z" fill="#0072C6"/>
<path fill-rule="evenodd" clip-rule="evenodd" d="M25.1562 106.719C16.875 106.719 12.3438 103.051 12.3438 95.1562V72.0312C12.3438 68.1794 10.8557 66.7188 7.8125 66.7188V60.9375C10.8557 60.9375 12.3438 59.5128 12.3438 55.4688V32.5C12.3438 24.0673 17.0883 20.7812 25.1562 20.7812V26.5625C21.9231 26.5625 20.1562 28.6481 20.1562 32.5V55.4688C20.1562 60.4764 18.5478 62.4041 15.3125 63.75C18.3558 65.098 20.1562 67.0258 20.1562 72.0312V95.1562C20.1562 98.4531 21.6412 100.938 25.1562 100.938V106.719Z" fill="#59B4D9"/>
<path fill-rule="evenodd" clip-rule="evenodd" d="M99.2188 20.7812C107.031 20.7812 112.031 24.6288 112.031 32.5V55.4688C112.031 59.3206 113.519 60.9375 116.562 60.9375V66.7188C113.519 66.7188 112.016 67.9872 112.016 72.0312V95.1562C112.016 103.521 107.283 106.719 99.2188 106.719V100.938C102.452 100.938 104.218 99.0081 104.218 95.1562V72.0312C104.218 67.0236 105.671 65.098 108.906 63.75C105.863 62.2097 104.218 60.4742 104.218 55.4688L104.219 32.5C104.219 29.2017 102.735 26.5625 99.2188 26.5625V20.7812Z" fill="#59B4D9"/>
<path d="M44.0625 75.4688H34.375C31.7862 75.4688 29.6875 77.5674 29.6875 80.1562V89.8438C29.6875 92.4326 31.7862 94.5312 34.375 94.5312H44.0625C46.6513 94.5312 48.75 92.4326 48.75 89.8438V80.1562C48.75 77.5674 46.6513 75.4688 44.0625 75.4688Z" fill="#7FBA00"/>
<path d="M89.6875 75.4688H80C77.4111 75.4688 75.3125 77.5674 75.3125 80.1562V89.8438C75.3125 92.4326 77.4111 94.5312 80 94.5312H89.6875C92.2763 94.5312 94.375 92.4326 94.375 89.8438V80.1562C94.375 77.5674 92.2763 75.4688 89.6875 75.4688Z" fill="#7FBA00"/>
</svg>
