<svg width="126" height="125" viewBox="0 0 126 125" fill="none" xmlns="http://www.w3.org/2000/svg">
<path d="M118.863 53.8375C115.49 50.465 110.653 49.5225 106.408 50.905L96.9075 41.405C97.6862 39.5707 97.8991 37.5456 97.5189 35.5895C97.1387 33.6334 96.1827 31.8355 94.7737 30.4264C93.3646 29.0173 91.5667 28.0614 89.6106 27.6812C87.6544 27.301 85.6293 27.5139 83.795 28.2925L74.2951 18.7925C75.6776 14.5475 74.7351 9.71004 71.3625 6.33754C70.225 5.19989 68.8745 4.29745 67.3882 3.68175C65.9019 3.06605 64.3088 2.74915 62.7001 2.74915C61.0913 2.74915 59.4982 3.06605 58.0119 3.68175C56.5256 4.29745 55.1751 5.19989 54.0376 6.33754C50.6651 9.71004 49.7225 14.5475 51.105 18.7925L41.605 28.2925C39.7708 27.5139 37.7457 27.301 35.7895 27.6812C33.8334 28.0614 32.0355 29.0173 30.6264 30.4264C29.2174 31.8355 28.2614 33.6334 27.8812 35.5895C27.501 37.5456 27.7139 39.5707 28.4925 41.405L18.9925 50.905C14.7475 49.5225 9.91005 50.465 6.53755 53.8375C5.3999 54.9751 4.49746 56.3256 3.88176 57.8119C3.26606 59.2982 2.94917 60.8912 2.94917 62.5C2.94917 64.1088 3.26606 65.7019 3.88176 67.1882C4.49746 68.6745 5.3999 70.025 6.53755 71.1625C9.91005 74.535 14.7475 75.4775 18.9925 74.095L28.4925 83.595C27.7139 85.4293 27.501 87.4544 27.8812 89.4105C28.2614 91.3667 29.2174 93.1646 30.6264 94.5737C32.0355 95.9827 33.8334 96.9387 35.7895 97.3189C37.7457 97.6991 39.7708 97.4862 41.605 96.7075L51.105 106.208C49.7225 110.453 50.6651 115.29 54.0376 118.663C55.1751 119.8 56.5256 120.703 58.0119 121.318C59.4982 121.934 61.0913 122.251 62.7001 122.251C64.3088 122.251 65.9019 121.934 67.3882 121.318C68.8745 120.703 70.225 119.8 71.3625 118.663C74.7351 115.29 75.6776 110.453 74.2951 106.208L83.795 96.7075C85.6293 97.4862 87.6544 97.6991 89.6106 97.3189C91.5667 96.9387 93.3646 95.9827 94.7737 94.5737C96.1827 93.1646 97.1387 91.3667 97.5189 89.4105C97.8991 87.4544 97.6862 85.4293 96.9075 83.595L106.408 74.095C110.653 75.4775 115.49 74.535 118.863 71.1625C121.16 68.8649 122.45 65.749 122.45 62.5C122.45 59.2511 121.16 56.1352 118.863 53.8375ZM55.5801 100.078L46.9076 91.405C47.4176 90.205 47.7001 88.885 47.7001 87.5C47.7001 86.115 47.4176 84.795 46.9076 83.595L62.7001 67.8025L78.4925 83.595C77.9826 84.795 77.7001 86.115 77.7001 87.5C77.7001 88.885 77.9826 90.205 78.4925 91.405L69.8201 100.078C67.7449 98.5875 65.2547 97.7861 62.7001 97.7861C60.1454 97.7861 57.6552 98.5875 55.5801 100.078ZM25.1225 55.38L33.795 46.7075C34.995 47.2175 36.315 47.5 37.7001 47.5C39.085 47.5 40.405 47.2175 41.605 46.7075L57.3976 62.5L41.605 78.2925C40.405 77.7825 39.085 77.5 37.7001 77.5C36.315 77.5 34.995 77.7825 33.795 78.2925L25.1225 69.62C26.6125 67.5449 27.414 65.0547 27.414 62.5C27.414 59.9454 26.6125 57.4552 25.1225 55.38ZM69.8201 24.9225L78.4925 33.595C77.9826 34.795 77.7001 36.115 77.7001 37.5C77.7001 38.885 77.9826 40.205 78.4925 41.405L62.7001 57.1975L46.9076 41.405C47.4176 40.205 47.7001 38.885 47.7001 37.5C47.7001 36.115 47.4176 34.795 46.9076 33.595L55.5801 24.9225C57.6552 26.4125 60.1454 27.214 62.7001 27.214C65.2547 27.214 67.7449 26.4125 69.8201 24.9225ZM87.7001 77.5C86.315 77.5 84.995 77.7825 83.795 78.2925L68.0026 62.5L83.795 46.7075C84.995 47.2175 86.315 47.5 87.7001 47.5C89.085 47.5 90.405 47.2175 91.605 46.7075L100.278 55.38C98.7865 57.4547 97.9844 59.9451 97.9844 62.5C97.9844 65.0549 98.7865 67.5454 100.278 69.62L91.605 78.2925C90.37 77.768 89.0418 77.4985 87.7001 77.5Z" fill="#DD5900"/>
</svg>
