<svg width="125" height="125" viewBox="0 0 125 125" fill="none" xmlns="http://www.w3.org/2000/svg">
<g clip-path="url(#clip0)">
<path d="M2.29249 95H65.467L127.292 32.5H2.29249V95Z" fill="#0072C6"/>
<path d="M74.4358 45.5H62.6806V73.4427L52.4098 45.4922H42.2301L33.4618 68.8776C32.5269 62.9844 26.4306 60.9479 21.6337 59.4245C18.467 58.4062 15.1051 56.9115 15.1389 55.2604C15.165 53.901 16.941 52.6406 20.4592 52.8333C23.4693 52.921 26.4166 53.7149 29.0634 55.151L33.1467 48.0391C28.9914 46.0282 24.4473 44.9483 19.8316 44.875H19.8056C17.6579 44.7729 15.5113 45.1 13.4916 45.8374C11.4718 46.5747 9.61934 47.7074 8.04256 49.1693C6.25367 51.0052 5.24563 53.4627 5.23006 56.026C5.12927 57.6277 5.4487 59.2279 6.1567 60.6681C6.8647 62.1083 7.93671 63.3386 9.26652 64.237C11.717 65.8776 14.4176 67.112 17.2587 67.8932C20.5191 68.9062 23.1858 69.7839 23.1519 71.6589C23.1348 72.3439 22.8605 72.9974 22.3837 73.4896C21.8611 73.9266 21.2574 74.2565 20.6073 74.4602C19.9572 74.664 19.2733 74.7377 18.5946 74.6771C15.1375 74.8088 11.7287 73.8325 8.86548 71.8906L5.23527 79.1042C9.29257 81.4096 13.876 82.6295 18.5426 82.6458H19.1519C22.8115 82.7024 26.3804 81.506 29.2665 79.2552C29.4176 79.1328 29.5556 79.0052 29.6962 78.8854L28.5165 82.0339H39.1936L40.9879 76.5833C43.011 77.2575 45.1315 77.5936 47.2639 77.5781C49.3425 77.5889 51.4098 77.2708 53.3889 76.6354L55.1155 82.0339H72.5295V70.7422H76.329C85.5087 70.7422 90.9384 66.0651 90.9384 58.2318C90.941 49.5 85.665 45.5 74.4358 45.5ZM47.2691 69.4167C45.9844 69.4268 44.7085 69.2036 43.5035 68.7578L47.2353 57.0026H47.3082L50.967 68.7917C49.7787 69.2079 48.5283 69.4192 47.2691 69.4167ZM75.1311 62.6615H72.5347V53.1901H75.1233C78.5764 53.1901 81.342 54.3359 81.342 57.8646C81.342 61.513 78.5868 62.6615 75.1233 62.6615" fill="white"/>
<path d="M83.4435 86.862C85.5112 86.862 87.1935 88.5443 87.1935 90.612C87.1935 92.6797 85.5112 94.362 83.4435 94.362C81.3758 94.362 79.6935 92.6797 79.6935 90.612C79.6935 88.5443 81.3758 86.862 83.4435 86.862ZM83.4435 86.2109C82.2763 86.2109 81.1568 86.6746 80.3315 87.5C79.5061 88.3253 79.0424 89.4447 79.0424 90.612C79.0424 91.7792 79.5061 92.8986 80.3315 93.724C81.1568 94.5493 82.2763 95.013 83.4435 95.013C84.6107 95.013 85.7301 94.5493 86.5555 93.724C87.3808 92.8986 87.8445 91.7792 87.8445 90.612C87.8445 89.4447 87.3808 88.3253 86.5555 87.5C85.7301 86.6746 84.6107 86.2109 83.4435 86.2109Z" fill="#0072C6"/>
<path d="M84.2534 90.8829C84.4107 90.8839 84.5667 90.8539 84.7124 90.7947C84.8581 90.7354 84.9908 90.6481 85.1027 90.5376C85.2147 90.427 85.3038 90.2956 85.3649 90.1506C85.4261 90.0057 85.4581 89.8501 85.4591 89.6928L85.4565 89.6121C85.4565 88.7084 84.9148 88.31 83.8289 88.31H82.0737V92.9167H82.769L82.7768 90.9167H83.5815L84.7924 92.9115H85.5737L84.2534 90.8829ZM82.7742 90.323V88.8933H83.7169C84.1987 88.8933 84.7143 88.9975 84.7143 89.5704C84.7143 90.2865 84.1935 90.323 83.6023 90.323H82.7742Z" fill="#0072C6"/>
</g>
<defs>
<clipPath id="clip0">
<rect width="125" height="125" fill="white"/>
</clipPath>
</defs>
</svg>
