<svg width="125" height="125" viewBox="0 0 125 125" fill="none" xmlns="http://www.w3.org/2000/svg">
<g clip-path="url(#clip0)">
<path d="M62.49 23.7L101.94 56.4525L88.6375 101.532H35.4925L22.95 56.525L62.49 23.7ZM62.49 9.73497L10.7325 52.705L27.335 112.275H96.67L114.247 52.705L62.49 9.73497Z" fill="#DD5900"/>
<path fill-rule="evenodd" clip-rule="evenodd" d="M62.5 0C73.2875 0 82.0325 8.745 82.0325 19.5325C82.0325 30.32 73.2875 39.0625 62.5 39.0625C51.7125 39.0625 42.97 30.3175 42.97 19.5325C42.9675 8.745 51.7125 0 62.5 0Z" fill="#FF8C00"/>
<path fill-rule="evenodd" clip-rule="evenodd" d="M105.47 33.2025C116.257 33.2025 125 41.9475 125 52.7325C125 63.52 116.255 72.2625 105.47 72.2625C94.6825 72.2625 85.9375 63.5175 85.9375 52.7325C85.9375 41.9475 94.6825 33.2025 105.47 33.2025Z" fill="#FF8C00"/>
<path fill-rule="evenodd" clip-rule="evenodd" d="M90.82 85.9375C101.607 85.9375 110.352 94.6825 110.352 105.468C110.352 116.255 101.607 124.998 90.82 124.998C80.0325 124.998 71.29 116.253 71.29 105.468C71.29 94.6825 80.0325 85.9375 90.82 85.9375Z" fill="#FF8C00"/>
<path fill-rule="evenodd" clip-rule="evenodd" d="M34.155 85.9375C44.9425 85.9375 53.6875 94.6825 53.6875 105.468C53.6875 116.255 44.9425 125 34.155 125C23.3675 125 14.6225 116.255 14.6225 105.468C14.6225 94.6825 23.3675 85.9375 34.155 85.9375Z" fill="#FF8C00"/>
<path fill-rule="evenodd" clip-rule="evenodd" d="M19.5325 33.2025C30.32 33.2025 39.0625 41.9475 39.0625 52.7325C39.0625 63.52 30.3175 72.2625 19.5325 72.2625C8.745 72.265 0 63.5225 0 52.735C0 41.9475 8.745 33.2025 19.5325 33.2025Z" fill="#FF8C00"/>
<path opacity="0.25" fill-rule="evenodd" clip-rule="evenodd" d="M37.6375 124.688L45.595 89.6425C42.38 87.315 38.43 85.94 34.155 85.94C33.1525 85.94 32.17 86.015 31.2075 86.1625L26.93 70.815C34.0475 67.8975 39.0625 60.905 39.0625 52.7375C39.0625 49.84 38.4275 47.0925 37.295 44.6175L49.725 34.3C51.8725 36.16 54.43 37.56 57.2425 38.3475L65.88 0.3C64.78 0.105 63.6525 0 62.5 0C51.7125 0 42.97 8.745 42.97 19.5325C42.97 21.5175 43.2675 23.4325 43.82 25.2375L30.315 36.45C27.225 34.4 23.52 33.205 19.535 33.205C8.745 33.2025 0 41.9475 0 52.735C0 62.35 6.95 70.335 16.0975 71.96L21.3325 90.745C17.2225 94.325 14.6225 99.5925 14.6225 105.47C14.6225 116.257 23.3675 125.003 34.155 125.003C35.3425 125 36.5075 124.89 37.6375 124.688Z" fill="white"/>
</g>
<defs>
<clipPath id="clip0">
<rect width="125" height="125" fill="white"/>
</clipPath>
</defs>
</svg>
