<svg width="125" height="125" viewBox="0 0 125 125" fill="none" xmlns="http://www.w3.org/2000/svg">
<g clip-path="url(#clip0)">
<path d="M77.5 95H47.5C51.585 109.42 46.535 112.5 22.5 112.5V120H102.5V112.5C78.465 112.5 73.41 109.427 77.5 95Z" fill="#7A7A7A"/>
<path d="M117.448 5H6.7925C3.0325 5 0 8.3125 0 12.0125V88.0425C0 91.72 3.0325 94.9975 6.7925 94.9975H117.448C121.2 94.9975 125 91.7225 125 88.0425V12.0125C125 8.3025 121.2 5 117.448 5Z" fill="#A0A1A2"/>
<path opacity="0.2" d="M117.525 5.00752L117.448 5.00252H6.79003C3.03003 5.00252 -0.00247192 8.31252 -0.00247192 12.015V88.0425C-0.00247192 91.725 3.03003 95 6.79003 95H9.42253L117.525 5.00752Z" fill="white"/>
<path d="M115 15V85H10V15H115Z" fill="#59B4D9"/>
<path d="M22.5 112.448L102.5 112.5V120H22.5V112.448Z" fill="#A0A1A2"/>
<path d="M63.7926 10.2375C63.7926 10.7083 63.6055 11.1597 63.2727 11.4926C62.9398 11.8255 62.4883 12.0125 62.0176 12.0125C61.5468 12.0125 61.0953 11.8255 60.7624 11.4926C60.4296 11.1597 60.2426 10.7083 60.2426 10.2375C60.2426 9.76675 60.4296 9.31527 60.7624 8.98239C61.0953 8.64952 61.5468 8.46251 62.0176 8.46251C62.4883 8.46251 62.9398 8.64952 63.2727 8.98239C63.6055 9.31527 63.7926 9.76675 63.7926 10.2375Z" fill="#B8D432"/>
<path d="M62.5675 47.005C62.4533 47.0029 62.3415 46.9719 62.2425 46.915L40.8425 34.77C40.7456 34.7138 40.6651 34.6332 40.609 34.5363C40.5528 34.4394 40.523 34.3295 40.5225 34.2175C40.5225 33.99 40.6475 33.78 40.8425 33.6675L62.1125 21.6025C62.2105 21.5484 62.3205 21.5201 62.4325 21.5201C62.5444 21.5201 62.6545 21.5484 62.7525 21.6025L84.16 33.75C84.2572 33.8049 84.3379 33.8849 84.3938 33.9817C84.4496 34.0784 84.4785 34.1883 84.4775 34.3C84.4782 34.4116 84.4492 34.5214 84.3934 34.6181C84.3376 34.7148 84.257 34.7948 84.16 34.85L62.8975 46.9125C62.7971 46.9708 62.6835 47.0026 62.5675 47.005Z" fill="white"/>
<path opacity="0.7" d="M59.4925 76.52C59.3784 76.5225 59.2658 76.4931 59.1675 76.435L37.8325 64.33C37.7321 64.2768 37.6481 64.1973 37.5895 64.0999C37.5309 64.0026 37.5 63.8911 37.5 63.7775V39.485C37.5 39.255 37.625 39.0475 37.83 38.9325C37.9291 38.875 38.0417 38.8447 38.1562 38.8447C38.2708 38.8447 38.3834 38.875 38.4825 38.9325L59.815 51.0325C59.9103 51.0912 59.9892 51.1732 60.0443 51.2707C60.0994 51.3681 60.1289 51.478 60.13 51.59V75.8825C60.1292 75.9939 60.0998 76.1032 60.0447 76.1999C59.9895 76.2966 59.9104 76.3776 59.815 76.435C59.7161 76.4895 59.6054 76.5187 59.4925 76.52Z" fill="white"/>
<path opacity="0.4" d="M65.5324 76.52C65.4154 76.5201 65.3003 76.4909 65.1974 76.435C65.102 76.3778 65.023 76.2969 64.9682 76.2C64.9134 76.1032 64.8847 75.9938 64.8849 75.8825V51.7425C64.8849 51.5175 65.0099 51.3075 65.1974 51.19L86.5299 39.09C86.6276 39.0336 86.7384 39.0039 86.8512 39.0039C86.964 39.0039 87.0748 39.0336 87.1724 39.09C87.2712 39.144 87.3537 39.2236 87.4113 39.3203C87.4689 39.417 87.4995 39.5274 87.4999 39.64V63.7775C87.5005 63.8906 87.4703 64.0017 87.4126 64.099C87.3549 64.1963 87.2719 64.2761 87.1724 64.33L65.8475 76.435C65.7525 76.4924 65.6433 76.5218 65.5324 76.52Z" fill="white"/>
<path d="M37.5 20H15V42.5H22.5V27.5H37.5V20ZM15 57.5V80H37.5V72.5H22.5V57.5H15ZM87.5 80H110V57.5H102.5V72.5H87.5V80ZM110 42.5V20H87.5V27.5H102.5V42.5H110Z" fill="white"/>
</g>
<defs>
<clipPath id="clip0">
<rect width="125" height="125" fill="white"/>
</clipPath>
</defs>
</svg>
